<svg width="17" height="16" viewBox="0 0 17 16" fill="none" xmlns="http://www.w3.org/2000/svg">
<path fill-rule="evenodd" clip-rule="evenodd" d="M8.98665 12.7942L8.75338 12.9313C8.59696 13.0233 8.403 13.0233 8.24659 12.9313L8.01335 12.7942C6.56961 11.9454 4.92706 11.5557 3.44697 12.0256C2.93972 12.1866 2.5 11.777 2.5 11.3163V4.48054C2.5 4.16603 2.69609 3.86296 3.02021 3.76006C4.89176 3.1659 6.8635 3.65324 8.5 4.58078C10.1365 3.65324 12.1082 3.1659 13.9798 3.76006C14.3039 3.86296 14.5 4.16603 14.5 4.48054V11.3163C14.5 11.777 14.0603 12.1866 13.553 12.0256C12.0729 11.5557 10.4304 11.9454 8.98665 12.7942ZM9 11.6484C10.3766 10.9547 11.9626 10.6022 13.5 10.9733V4.66099C12.0323 4.26186 10.43 4.63804 9 5.44685V11.6484ZM8 11.6484V5.44685C6.56998 4.63804 4.9677 4.26186 3.5 4.66099V10.9733C5.0374 10.6022 6.6234 10.9547 8 11.6484Z" fill="#919191"/>
</svg>
