<svg width="25" height="24" viewBox="0 0 25 24" fill="none" xmlns="http://www.w3.org/2000/svg">
<path d="M10.3604 16.8918C11.2186 17.585 12.3108 18.0001 13.4999 18.0001C14.2543 18.0001 14.9709 17.8327 15.6134 17.5326L17.9018 17.9904C18.0658 18.0232 18.2352 17.9719 18.3535 17.8537C18.4717 17.7355 18.523 17.566 18.4902 17.4021L18.0325 15.1135C18.3325 14.471 18.4999 13.7545 18.4999 13.0001C18.4999 11.8112 18.085 10.7192 17.392 9.86108C17.4628 10.2299 17.5 10.6107 17.5 11.0001C17.5 11.3768 17.4652 11.7453 17.3989 12.1027C17.465 12.3912 17.4999 12.6916 17.4999 13.0001C17.4999 13.6558 17.3425 14.2733 17.0639 14.8183C17.0126 14.9186 16.9967 15.0334 17.0188 15.1439L17.3625 16.8627L15.6439 16.5189C15.5333 16.4968 15.4186 16.5127 15.3182 16.564C14.7732 16.8427 14.1557 17.0001 13.4999 17.0001C13.1913 17.0001 12.8909 16.9652 12.6024 16.899C12.2451 16.9654 11.8766 17.0001 11.5 17.0001C11.1108 17.0001 10.7297 16.9629 10.3604 16.8918ZM6.50001 11C6.50001 8.23858 8.73858 6 11.5 6C14.2614 6 16.5 8.23858 16.5 11C16.5 13.7614 14.2614 16 11.5 16C10.7456 16 10.029 15.8326 9.38649 15.5325L7.09809 15.9903C6.93416 16.0231 6.76468 15.9718 6.64646 15.8536C6.52825 15.7354 6.47693 15.5659 6.50972 15.402L6.96742 13.1134C6.6674 12.4709 6.50001 11.7544 6.50001 11ZM11.4999 12.8803C11.155 12.8803 10.8754 13.1599 10.8754 13.5048C10.8754 13.8497 11.155 14.1293 11.4999 14.1293C11.8448 14.1293 12.1244 13.8497 12.1244 13.5048C12.1244 13.1599 11.8448 12.8803 11.4999 12.8803ZM11.5 8.00342C10.452 8.00342 9.63568 8.82081 9.64659 9.95771C9.64924 10.2338 9.87524 10.4555 10.1514 10.4529C10.4275 10.4502 10.6492 10.2242 10.6465 9.94811C10.641 9.3691 11.0062 9.00342 11.5 9.00342C11.9723 9.00342 12.3534 9.39531 12.3534 9.95291C12.3534 10.1547 12.2822 10.2679 11.9937 10.4968L11.7157 10.7118C11.2099 11.1161 11 11.4293 10.9999 12.0003C10.9999 12.2764 11.2238 12.5003 11.4999 12.5003C11.7454 12.5003 11.9495 12.3234 11.9919 12.0902L12.0034 11.934C12.0202 11.7863 12.103 11.6804 12.3487 11.4858L12.6257 11.2715C13.1391 10.8606 13.3534 10.5387 13.3534 9.95291C13.3534 8.84921 12.531 8.00342 11.5 8.00342Z" fill="white"/>
</svg>
