<svg width="20" height="21" viewBox="0 0 20 21" fill="none" xmlns="http://www.w3.org/2000/svg">
<path d="M3.57349 14.4766C3.33308 14.7243 2.9374 14.7302 2.6897 14.4898C2.44201 14.2494 2.4361 13.8537 2.67651 13.606L9.54933 6.52496C9.55243 6.52173 9.55558 6.51853 9.55877 6.51535C9.68044 6.39399 9.84014 6.33302 10 6.33301C10.0929 6.333 10.1858 6.35356 10.2714 6.39482C10.3328 6.4244 10.3903 6.4646 10.4412 6.51535C10.4444 6.51853 10.4476 6.52173 10.4507 6.52496L17.3235 13.606C17.5639 13.8537 17.558 14.2494 17.3103 14.4898C17.0626 14.7302 16.6669 14.7243 16.4265 14.4766L10 7.85538L3.57349 14.4766Z" fill="#2D3136"/>
</svg>
