<svg width="24" height="24" viewBox="0 0 24 24" fill="none" xmlns="http://www.w3.org/2000/svg">
<g id="Mono Icon / Chevron-Right-Outlined">
<path id="Vector" d="M7.22764 4.28819C6.93041 3.9997 6.92332 3.52488 7.21181 3.22764C7.5003 2.93041 7.97512 2.92333 8.27236 3.21181L16.7697 11.4592C16.7735 11.4629 16.7774 11.4667 16.7812 11.4705C16.9268 11.6165 17 11.8082 17 12C17 12.1115 16.9753 12.223 16.9258 12.3257C16.8903 12.3994 16.8421 12.4684 16.7812 12.5295C16.7774 12.5333 16.7735 12.5371 16.7697 12.5408L8.27236 20.7882C7.97512 21.0767 7.5003 21.0696 7.21181 20.7724C6.92332 20.4751 6.93041 20.0003 7.22764 19.7118L15.1731 12L7.22764 4.28819Z" fill="#2D3136"/>
</g>
</svg>
