<svg width="20" height="21" viewBox="0 0 20 21" fill="none" xmlns="http://www.w3.org/2000/svg">
<path d="M3.57349 6.52336C3.33308 6.27567 2.9374 6.26976 2.6897 6.51017C2.44201 6.75058 2.4361 7.14626 2.67651 7.39396L9.54933 14.475C9.55243 14.4783 9.55558 14.4815 9.55877 14.4846C9.68044 14.606 9.84014 14.667 10 14.667C10.0929 14.667 10.1858 14.6464 10.2714 14.6052C10.3328 14.5756 10.3903 14.5354 10.4412 14.4846C10.4444 14.4815 10.4476 14.4783 10.4507 14.475L17.3235 7.39395C17.5639 7.14626 17.558 6.75058 17.3103 6.51017C17.0626 6.26976 16.6669 6.27567 16.4265 6.52336L10 13.1446L3.57349 6.52336Z" fill="#2D3136"/>
</svg>
