<svg width="16" height="16" viewBox="0 0 16 16" fill="none" xmlns="http://www.w3.org/2000/svg">
<path fill-rule="evenodd" clip-rule="evenodd" d="M4 1.5H8.5V5.5C8.5 5.77614 8.72386 6 9 6H13V13.5C13 14.0523 12.5523 14.5 12 14.5H4C3.44772 14.5 3 14.0523 3 13.5V2.5C3 1.94772 3.44772 1.5 4 1.5ZM9.5 1.5V5H13L9.5 1.5ZM10.6036 9.89645C10.7988 10.0917 10.7988 10.4083 10.6036 10.6036L8.35355 12.8536C8.15829 13.0488 7.84171 13.0488 7.64645 12.8536L5.39645 10.6036C5.20118 10.4083 5.20118 10.0917 5.39645 9.89645C5.59171 9.70118 5.90829 9.70118 6.10355 9.89645L7.5 11.2929V7.25C7.5 6.97386 7.72386 6.75 8 6.75C8.27614 6.75 8.5 6.97386 8.5 7.25V11.2929L9.89645 9.89645C10.0917 9.70118 10.4083 9.70118 10.6036 9.89645Z" fill="white"/>
</svg>
