<svg width="16" height="16" viewBox="0 0 16 16" fill="none" xmlns="http://www.w3.org/2000/svg">
<path fill-rule="evenodd" clip-rule="evenodd" d="M4.5 1.5H9V5.5C9 5.77614 9.22386 6 9.5 6H13.5V13.5C13.5 14.0523 13.0523 14.5 12.5 14.5H4.5C3.94772 14.5 3.5 14.0523 3.5 13.5V2.5C3.5 1.94772 3.94772 1.5 4.5 1.5ZM10 1.5V5H13.5L10 1.5ZM6.89645 6.14645C7.09171 5.95118 7.40829 5.95118 7.60355 6.14645L9.85355 8.39645C10.0488 8.59171 10.0488 8.90829 9.85355 9.10355L7.60355 11.3536C7.40829 11.5488 7.09171 11.5488 6.89645 11.3536C6.70118 11.1583 6.70118 10.8417 6.89645 10.6464L8.29289 9.25H1.5C1.22386 9.25 1 9.02614 1 8.75C1 8.47386 1.22386 8.25 1.5 8.25H8.29289L6.89645 6.85355C6.70118 6.65829 6.70118 6.34171 6.89645 6.14645Z" fill="white"/>
</svg>
