<svg width="20" height="20" viewBox="0 0 20 20" fill="none" xmlns="http://www.w3.org/2000/svg">
<path d="M10.188 4.16875C11.7464 2.61042 14.2729 2.61042 15.8313 4.16875C17.3896 5.72708 17.3896 8.25363 15.8313 9.81195L15.0791 10.5641C14.7675 10.8757 14.2622 10.8757 13.9505 10.5641C13.6388 10.2524 13.6388 9.74708 13.9505 9.43542L14.7026 8.68331C15.6376 7.74832 15.6376 6.23239 14.7026 5.29739C13.7676 4.36239 12.2517 4.36239 11.3167 5.29739L10.5646 6.04949C10.2529 6.36116 9.7476 6.36116 9.43594 6.04949C9.12427 5.73783 9.12427 5.23252 9.43594 4.92085L10.188 4.16875Z" fill="#266BFF"/>
<path d="M6.04982 9.43594C6.36148 9.7476 6.36148 10.2529 6.04982 10.5646L5.29739 11.317C4.36239 12.252 4.36239 13.7679 5.29739 14.7029C6.23238 15.6379 7.74832 15.6379 8.68331 14.7029L9.43574 13.9505C9.74741 13.6388 10.2527 13.6388 10.5644 13.9505C10.876 14.2622 10.876 14.7675 10.5644 15.0791L9.81195 15.8316C8.25363 17.3899 5.72708 17.3899 4.16875 15.8316C2.61042 14.2732 2.61042 11.7467 4.16875 10.1884L4.92117 9.43594C5.23284 9.12427 5.73815 9.12427 6.04982 9.43594Z" fill="#266BFF"/>
<path d="M12.8215 8.30806C13.1332 7.99639 13.1332 7.49108 12.8215 7.17942C12.5098 6.86775 12.0045 6.86775 11.6929 7.17942L7.17828 11.694C6.86662 12.0056 6.86662 12.511 7.17829 12.8226C7.48995 13.1343 7.99526 13.1343 8.30693 12.8226L12.8215 8.30806Z" fill="#266BFF"/>
</svg>
