<svg width="20" height="21" viewBox="0 0 20 21" fill="none" xmlns="http://www.w3.org/2000/svg">
<path fill-rule="evenodd" clip-rule="evenodd" d="M9.99984 18.8337C14.6022 18.8337 18.3332 15.1027 18.3332 10.5003C18.3332 5.89795 14.6022 2.16699 9.99984 2.16699C5.39746 2.16699 1.6665 5.89795 1.6665 10.5003C1.6665 15.1027 5.39746 18.8337 9.99984 18.8337ZM10.6665 5.70866C10.6665 5.34047 10.368 5.04199 9.99984 5.04199C9.63165 5.04199 9.33317 5.34047 9.33317 5.70866V10.5003C9.33317 10.7473 9.46967 10.974 9.68791 11.0895L13.2296 12.9645C13.555 13.1368 13.9584 13.0127 14.1307 12.6873C14.303 12.3619 14.1788 11.9584 13.8534 11.7861L10.6665 10.0989V5.70866Z" fill="#D3D7DA"/>
<path fill-rule="evenodd" clip-rule="evenodd" d="M9.99984 5.04199C10.368 5.04199 10.6665 5.34047 10.6665 5.70866V10.0989L13.8534 11.7861C14.1788 11.9584 14.303 12.3619 14.1307 12.6873C13.9584 13.0127 13.555 13.1368 13.2296 12.9645L9.68791 11.0895C9.46967 10.974 9.33317 10.7473 9.33317 10.5003V5.70866C9.33317 5.34047 9.63165 5.04199 9.99984 5.04199Z" fill="#2D3136"/>
</svg>
