<svg width="16" height="16" viewBox="0 0 16 16" fill="none" xmlns="http://www.w3.org/2000/svg">
<g id="Mono Icon / Clock-Outlined">
<g id="Vector">
<path d="M8.50016 4.16683C8.50016 3.89069 8.27631 3.66683 8.00016 3.66683C7.72402 3.66683 7.50016 3.89069 7.50016 4.16683V8.00016C7.50016 8.18537 7.60254 8.3554 7.76622 8.44206L10.5996 9.94206C10.8436 10.0713 11.1462 9.97816 11.2754 9.73411C11.4046 9.49006 11.3115 9.18747 11.0674 9.05827L8.50016 7.69912V4.16683Z" fill="#2D3136"/>
<path fill-rule="evenodd" clip-rule="evenodd" d="M8.00016 1.3335C4.31826 1.3335 1.3335 4.31826 1.3335 8.00016C1.3335 11.6821 4.31826 14.6668 8.00016 14.6668C11.6821 14.6668 14.6668 11.6821 14.6668 8.00016C14.6668 4.31826 11.6821 1.3335 8.00016 1.3335ZM2.3335 8.00016C2.3335 4.87055 4.87055 2.3335 8.00016 2.3335C11.1298 2.3335 13.6668 4.87055 13.6668 8.00016C13.6668 11.1298 11.1298 13.6668 8.00016 13.6668C4.87055 13.6668 2.3335 11.1298 2.3335 8.00016Z" fill="#2D3136"/>
</g>
</g>
</svg>
