<svg width="20" height="20" viewBox="0 0 20 20" fill="none" xmlns="http://www.w3.org/2000/svg">
<path fill-rule="evenodd" clip-rule="evenodd" d="M4.54612 8.11673C5.43311 5.25762 8.46993 3.65891 11.329 4.5459C13.9864 5.37029 15.5549 8.05174 15.051 10.7216C14.8595 10.5956 14.607 10.5748 14.3898 10.6891C14.072 10.8565 13.95 11.2498 14.1173 11.5677L14.6886 12.653C14.856 12.9708 15.2493 13.0929 15.5672 12.9255L16.6524 12.3542C16.9703 12.1868 17.0923 11.7935 16.925 11.4756C16.7997 11.2376 16.5477 11.1094 16.2956 11.1303C17.0204 7.76451 15.0656 4.34309 11.7145 3.30345C8.1692 2.20358 4.40354 4.18598 3.30367 7.73128C2.20379 11.2766 4.1862 15.0422 7.7315 16.1421C10.0673 16.8668 12.4983 16.2528 14.1984 14.7384C14.4666 14.4995 14.4904 14.0884 14.2515 13.8201C14.0125 13.5519 13.6014 13.5281 13.3331 13.7671C11.9594 14.9907 9.99936 15.4837 8.11695 14.8997C5.25784 14.0127 3.65912 10.9758 4.54612 8.11673ZM9.70355 6.59912C10.0628 6.59912 10.354 6.89033 10.354 7.24956V10.2172L11.7607 11.021C12.0726 11.1993 12.181 11.5966 12.0028 11.9085C11.8246 12.2204 11.4272 12.3287 11.1153 12.1505L9.38084 11.1594C9.17819 11.0436 9.05312 10.8281 9.05312 10.5946V7.24956C9.05312 6.89033 9.34433 6.59912 9.70355 6.59912Z" fill="currentColor"/>
</svg>
