<svg width="20" height="20" viewBox="0 0 20 20" fill="none" xmlns="http://www.w3.org/2000/svg">
<path d="M13.1181 5.998C13.3622 5.75392 13.7579 5.75392 14.002 5.998C14.2461 6.24207 14.2461 6.6378 14.002 6.88188L10.8839 9.99998L14.002 13.118C14.2461 13.3621 14.2461 13.7578 14.002 14.0019C13.7579 14.246 13.3622 14.246 13.1181 14.0019L10.0001 10.8839L6.88204 14.0019C6.63797 14.246 6.24224 14.246 5.99816 14.0019C5.75408 13.7579 5.75408 13.3621 5.99815 13.1181L9.11618 9.99999L5.99815 6.88199C5.75407 6.63792 5.75402 6.24214 5.99809 5.99806C6.24217 5.75398 6.63795 5.75403 6.88203 5.99811L10.0001 9.1161L13.1181 5.998Z" fill="#5F5F5F"/>
</svg>
