<svg width="8" height="8" viewBox="0 0 8 8" fill="none" xmlns="http://www.w3.org/2000/svg">
<path fill-rule="evenodd" clip-rule="evenodd" d="M0.130175 0.130175C0.303741 -0.0433916 0.585148 -0.0433916 0.758714 0.130175L4 3.37146L7.24129 0.130175C7.41485 -0.0433916 7.69626 -0.0433916 7.86982 0.130175C8.04339 0.303741 8.04339 0.585148 7.86982 0.758714L4.62854 4L7.86982 7.24129C8.04339 7.41485 8.04339 7.69626 7.86982 7.86982C7.69626 8.04339 7.41485 8.04339 7.24129 7.86982L4 4.62854L0.758714 7.86982C0.585148 8.04339 0.303741 8.04339 0.130175 7.86982C-0.0433916 7.69626 -0.0433916 7.41485 0.130175 7.24129L3.37146 4L0.130175 0.758714C-0.0433916 0.585148 -0.0433916 0.303741 0.130175 0.130175Z" fill="#5F5F5F"/>
</svg>
