<svg width="25" height="24" viewBox="0 0 25 24" fill="none" xmlns="http://www.w3.org/2000/svg">
<g id="Color Icon / Column Chart">
<g id="Vector">
<path d="M2.5 8.5C2.5 8.22386 2.72386 8 3 8H7C7.27614 8 7.5 8.22386 7.5 8.5V21.5C7.5 21.7761 7.27614 22 7 22H3C2.72386 22 2.5 21.7761 2.5 21.5V8.5Z" fill="#266BFF"/>
<path d="M17.5 2.5C17.5 2.22386 17.7239 2 18 2H22C22.2761 2 22.5 2.22386 22.5 2.5V21.5C22.5 21.7761 22.2761 22 22 22H18C17.7239 22 17.5 21.7761 17.5 21.5V2.5Z" fill="#12B76A"/>
<path d="M10 12.5C10 12.2239 10.2239 12 10.5 12H14.5C14.7761 12 15 12.2239 15 12.5V21.5C15 21.7761 14.7761 22 14.5 22H10.5C10.2239 22 10 21.7761 10 21.5V12.5Z" fill="#F04438"/>
</g>
</g>
</svg>
