<svg width="24" height="25" viewBox="0 0 24 25" fill="none" xmlns="http://www.w3.org/2000/svg">
<path fill-rule="evenodd" clip-rule="evenodd" d="M12 18.5C15.3137 18.5 18 15.8137 18 12.5H22C22 18.0228 17.5228 22.5 12 22.5V18.5Z" fill="#12B76A"/>
<path fill-rule="evenodd" clip-rule="evenodd" d="M12 6.5C8.68629 6.5 6 9.18629 6 12.5C6 15.8137 8.68629 18.5 12 18.5V22.5C6.47715 22.5 2 18.0228 2 12.5C2 6.97715 6.47715 2.5 12 2.5V6.5Z" fill="#266BFF"/>
<path fill-rule="evenodd" clip-rule="evenodd" d="M18 12.5C18 9.18629 15.3137 6.5 12 6.5V2.5C17.5228 2.5 22 6.97715 22 12.5H18Z" fill="#F04438"/>
</svg>
