<svg width="20" height="20" viewBox="0 0 20 20" fill="none" xmlns="http://www.w3.org/2000/svg">
<path d="M10.75 4.25C10.75 3.83579 10.4142 3.5 10 3.5C9.58579 3.5 9.25 3.83579 9.25 4.25V11.1893L7.03033 8.96967C6.73744 8.67678 6.26256 8.67678 5.96967 8.96967C5.67678 9.26256 5.67678 9.73744 5.96967 10.0303L9.46967 13.5303C9.76256 13.8232 10.2374 13.8232 10.5303 13.5303L14.0303 10.0303C14.3232 9.73744 14.3232 9.26256 14.0303 8.96967C13.7374 8.67678 13.2626 8.67678 12.9697 8.96967L10.75 11.1893V4.25Z" fill="#266BFF"/>
<path d="M4.75 15C4.33579 15 4 15.3358 4 15.75C4 16.1642 4.33579 16.5 4.75 16.5H15.25C15.6642 16.5 16 16.1642 16 15.75C16 15.3358 15.6642 15 15.25 15H4.75Z" fill="#266BFF"/>
</svg>
