<svg width="32" height="32" viewBox="0 0 32 32" fill="none" xmlns="http://www.w3.org/2000/svg">
<path fill-rule="evenodd" clip-rule="evenodd" d="M25 29.4C25 29.8 24.9 30.1 24.6 30.4C24.3 30.7 24 30.8 23.6 30.8H11.4C11 30.8 10.7 30.7 10.4 30.4C10.1 30.1 10 29.8 10 29.4C10 29 10.1 28.7 10.4 28.4C10.7 28.1 11 28 11.4 28H23.6C24 28 24.3 28.1 24.6 28.4C24.9 28.7 25 29.1 25 29.4Z" fill="#266BFF" fill-opacity="0.15"/>
<path fill-rule="evenodd" clip-rule="evenodd" d="M18.9 4.5H16.1V2.4C16.1 1.6 16.7 1 17.5 1C18.3 1 18.9 1.6 18.9 2.4V4.5Z" fill="#266BFF" fill-opacity="0.15"/>
<path fill-rule="evenodd" clip-rule="evenodd" d="M18.9 4.5H16.1V2.4C16.1 1.6 16.7 1 17.5 1C18.3 1 18.9 1.6 18.9 2.4V4.5Z" fill="#266BFF" fill-opacity="0.15"/>
<path fill-rule="evenodd" clip-rule="evenodd" d="M16.1 19.3H18.9V29.4C18.9 30.2 18.3 30.8 17.5 30.8C16.7 30.8 16.1 30.2 16.1 29.4V19.3Z" fill="#266BFF" fill-opacity="0.15"/>
<path fill-rule="evenodd" clip-rule="evenodd" d="M16.1 19.3H18.9V21.1C18.9 21.9 18.3 22.5 17.5 22.5C16.7 22.5 16.1 21.9 16.1 21.1V19.3Z" fill="#266BFF" fill-opacity="0.15"/>
<path d="M27.4 19.3C27.9 19.3 28.4 19.3 28.8 19.1C29.3 18.9 29.7 18.7 30 18.4C30.3 18.1 30.6 17.6 30.7 17.2C30.9 16.8 30.9 16.3 30.9 15.8V8C30.9 7.5 30.9 7.1 30.7 6.6C30.5 6.2 30.3 5.8 30 5.4C29.6 5.1 29.2 4.8 28.8 4.7C28.3 4.5 27.9 4.5 27.4 4.5H9C8.4 4.5 7.9 4.6 7.3 4.8C6.9 5 6.4 5.4 6 5.7L2.3 9.3C2 9.6 1.6 10 1.4 10.5C1.2 10.9 1 11.4 1 11.9C1 12.4 1.2 12.9 1.4 13.3C1.6 13.7 2 14.1 2.3 14.5L6 18.1C6.4 18.5 6.8 18.8 7.3 19.1C7.8 19.3 8.4 19.4 9 19.3H27.4Z" fill="#266BFF" fill-opacity="0.15"/>
</svg>
