<svg width="32" height="32" viewBox="0 0 32 32" fill="none" xmlns="http://www.w3.org/2000/svg">
<path fill-rule="evenodd" clip-rule="evenodd" d="M4 6C4 3.79086 5.79086 2 8 2H15.3431C16.404 2 17.4214 2.42143 18.1716 3.17157L26.8284 11.8284C27.5786 12.5786 28 13.596 28 14.6569V26C28 28.2091 26.2091 30 24 30H8C5.79086 30 4 28.2091 4 26V6ZM9 17.25C9 16.5596 9.55964 16 10.25 16H20.75C21.4404 16 22 16.5596 22 17.25C22 17.9404 21.4404 18.5 20.75 18.5H10.25C9.55964 18.5 9 17.9404 9 17.25ZM10.25 21.5C9.55964 21.5 9 22.0596 9 22.75C9 23.4404 9.55964 24 10.25 24H20.75C21.4404 24 22 23.4404 22 22.75C22 22.0596 21.4404 21.5 20.75 21.5H10.25Z" fill="#266BFF" fill-opacity="0.15"/>
<path d="M26.8284 11.8284C27.1703 12.1704 27.4442 12.5683 27.6407 13.0001H21C18.7909 13.0001 17 11.2092 17 9.00009V2.35938C17.4319 2.55594 17.8295 2.82954 18.1716 3.17157L26.8284 11.8284C26.8283 11.8283 26.8285 11.8285 26.8284 11.8284Z" fill="#266BFF" fill-opacity="0.15"/>
</svg>
