<svg width="20" height="20" viewBox="0 0 20 20" fill="none" xmlns="http://www.w3.org/2000/svg">
<path fill-rule="evenodd" clip-rule="evenodd" d="M2.28928 10.4407C3.03412 11.3799 4.41171 12.9248 6.15036 14.0062L5.47702 14.6924C5.1835 14.9916 5.1835 15.4765 5.47702 15.7757C5.77053 16.0748 6.24641 16.0748 6.53992 15.7757L16.5611 5.56289C16.8546 5.26376 16.8546 4.77879 16.5611 4.47966C16.2676 4.18054 15.7917 4.18054 15.4982 4.47966L14.4003 5.59859C13.1231 4.6963 11.6136 4 9.99622 4C6.51124 4 3.52685 7.23286 2.28928 8.79337C1.90357 9.27973 1.90357 9.95431 2.28928 10.4407ZM6.1915 12.1892C6.53697 12.4485 6.89044 12.6833 7.24927 12.8863L8.12262 11.9962C7.44413 11.4345 7.01059 10.5774 7.01059 9.61702C7.01059 7.92491 8.35658 6.55319 10.0169 6.55319C10.9593 6.55319 11.8003 6.99502 12.3515 7.68649L13.3175 6.70204C12.2484 5.98853 11.1169 5.53191 9.99622 5.53191C8.70506 5.53191 7.39944 6.13806 6.1915 7.04489C5.07175 7.88551 4.15449 8.89601 3.57005 9.61702C4.15449 10.338 5.07175 11.3485 6.1915 12.1892ZM11.2771 8.7815L9.19709 10.9012C8.7857 10.6279 8.51376 10.1548 8.51376 9.61702C8.51376 8.77097 9.18676 8.08511 10.0169 8.08511C10.5447 8.08511 11.0089 8.36224 11.2771 8.7815ZM10.0038 15.2325C9.4599 15.2325 8.92821 15.1537 8.41346 15.0149L9.71305 13.6904C9.81001 13.6971 9.90693 13.7005 10.0038 13.7005C11.2949 13.7005 12.6006 13.0944 13.8085 12.1876C14.9283 11.3469 15.8455 10.3364 16.4299 9.61543C16.0951 9.2024 15.6511 8.69436 15.1224 8.17768L16.1855 7.09425C16.8253 7.7218 17.3445 8.33001 17.7107 8.79178C18.0964 9.27814 18.0964 9.95272 17.7107 10.4391C16.4731 11.9996 13.4888 15.2325 10.0038 15.2325Z" fill="#141414"/>
</svg>
