<svg width="20" height="20" viewBox="0 0 20 20" fill="none" xmlns="http://www.w3.org/2000/svg">
<path fill-rule="evenodd" clip-rule="evenodd" d="M13.8347 6.98452C14.9555 7.80554 15.8741 8.79257 16.4617 9.5C15.8741 10.2074 14.9555 11.1945 13.8347 12.0155C12.6261 12.9008 11.3103 13.5 10 13.5C8.6897 13.5 7.37386 12.9008 6.1653 12.0155C5.04451 11.1945 4.12593 10.2074 3.53827 9.5C4.12593 8.79257 5.04451 7.80554 6.1653 6.98452C7.37386 6.0992 8.6897 5.5 10 5.5C11.3103 5.5 12.6261 6.0992 13.8347 6.98452ZM17.7071 8.68128C18.0976 9.16199 18.0976 9.83801 17.7071 10.3187C16.4619 11.8513 13.4803 15 10 15C6.51975 15 3.53808 11.8513 2.29292 10.3187C1.90236 9.83801 1.90236 9.16199 2.29291 8.68129C3.53808 7.14869 6.51975 4 10 4C13.4802 4 16.4619 7.14869 17.7071 8.68128ZM11.5648 9.5C11.5648 10.3284 10.8932 11 10.0648 11C9.23639 11 8.56482 10.3284 8.56482 9.5C8.56482 8.67157 9.23639 8 10.0648 8C10.8932 8 11.5648 8.67157 11.5648 9.5ZM13.0648 9.5C13.0648 11.1569 11.7217 12.5 10.0648 12.5C8.40797 12.5 7.06482 11.1569 7.06482 9.5C7.06482 7.84315 8.40797 6.5 10.0648 6.5C11.7217 6.5 13.0648 7.84315 13.0648 9.5Z" fill="#141414"/>
</svg>
