<svg width="20" height="20" viewBox="0 0 20 20" fill="none" xmlns="http://www.w3.org/2000/svg">
<path fill-rule="evenodd" clip-rule="evenodd" d="M6.25 5C6.11193 5 6 5.11193 6 5.25V14.75C6 14.8881 6.11193 15 6.25002 15H13.75C13.8881 15 14 14.8881 14 14.75V9.75H10.5C9.80964 9.75 9.25 9.19036 9.25 8.5V5H6.25ZM10.75 6.06066L12.9393 8.25H10.75V6.06066ZM4.5 5.25C4.5 4.2835 5.2835 3.5 6.25 3.5H10C10.1989 3.5 10.3897 3.57902 10.5303 3.71967L15.2803 8.46967C15.421 8.61032 15.5 8.80109 15.5 9V14.75C15.5 15.7165 14.7165 16.5 13.75 16.5H6.25002C5.28354 16.5 4.5 15.7165 4.5 14.75V5.25Z" fill="#266BFF"/>
</svg>
