<svg width="126" height="106" viewBox="0 0 126 106" fill="none" xmlns="http://www.w3.org/2000/svg">
<g id="gauge-graph">
<path id="gauge-graph-bg" d="M104.207 104.207C106.052 106.052 109.059 106.063 110.761 104.084C117.822 95.8758 122.667 85.9627 124.79 75.2907C127.22 63.0699 125.973 50.4027 121.204 38.8909C116.436 27.3792 108.361 17.5399 98.001 10.6174C87.6407 3.69488 75.4603 -7.42933e-08 63 0C50.5398 7.42933e-08 38.3594 3.69489 27.9991 10.6174C17.6388 17.5399 9.56394 27.3792 4.79562 38.8909C0.0272969 50.4027 -1.22031 63.0699 1.21056 75.2907C3.33336 85.9627 8.17811 95.8758 15.2395 104.084C16.9413 106.063 19.9482 106.052 21.7934 104.207C23.6386 102.361 23.6203 99.3821 21.9449 97.3814C16.1914 90.5112 12.237 82.2854 10.479 73.4471C8.41274 63.0594 9.47321 52.2923 13.5263 42.5073C17.5794 32.7223 24.443 24.3589 33.2492 18.4748C42.0555 12.5907 52.4088 9.45 63 9.45C73.5912 9.45 83.9446 12.5907 92.7508 18.4748C101.557 24.3589 108.421 32.7223 112.474 42.5073C116.527 52.2923 117.587 63.0594 115.521 73.4471C113.763 82.2854 109.809 90.5112 104.055 97.3814C102.38 99.3821 102.361 102.361 104.207 104.207Z" fill="#D3D7DA"/>
<path id="gauge-graph-value" d="M21.7934 104.207C19.9482 106.052 16.9412 106.063 15.2394 104.084C6.54024 93.9721 1.24725 81.322 0.194298 67.943C-0.982628 52.9887 3.21495 38.1053 12.032 25.9696C20.8491 13.834 33.707 5.24258 48.293 1.74078C61.3426 -1.39214 75.0092 -0.267311 87.3147 4.88117C89.7221 5.88836 90.6411 8.75156 89.4564 11.0767C88.2717 13.4018 85.4325 14.3051 83.0121 13.3298C72.7238 9.18452 61.3601 8.32219 50.4991 10.9297C38.101 13.9062 27.1717 21.2089 19.6772 31.5242C12.1827 41.8395 8.61478 54.4905 9.61517 67.2016C10.4915 78.3367 14.8232 88.8778 21.9449 97.3816C23.6204 99.3822 23.6387 102.361 21.7934 104.207Z" fill="#5F656D"/>
</g>
</svg>
