<svg width="126" height="106" viewBox="0 0 126 106" fill="none" xmlns="http://www.w3.org/2000/svg">
<g id="gauge-graph">
<path id="gauge-graph-bg" d="M104.207 104.207C106.052 106.052 109.059 106.063 110.761 104.084C117.822 95.8758 122.667 85.9627 124.789 75.2907C127.22 63.0699 125.973 50.4027 121.204 38.8909C116.436 27.3792 108.361 17.5399 98.0009 10.6174C87.6406 3.69489 75.4602 0 63 0C50.5398 0 38.3594 3.69489 27.9991 10.6174C17.6388 17.5399 9.56393 27.3792 4.79561 38.8909C0.0272905 50.4027 -1.22031 63.0699 1.21056 75.2907C3.33336 85.9627 8.1781 95.8758 15.2395 104.084C16.9413 106.063 19.9482 106.052 21.7934 104.207C23.6386 102.361 23.6203 99.3821 21.9449 97.3814C16.1914 90.5112 12.237 82.2854 10.479 73.4471C8.41274 63.0594 9.4732 52.2923 13.5263 42.5073C17.5793 32.7223 24.443 24.3589 33.2492 18.4748C42.0555 12.5907 52.4088 9.45 63 9.45C73.5912 9.45 83.9446 12.5907 92.7508 18.4748C101.557 24.3589 108.421 32.7223 112.474 42.5073C116.527 52.2923 117.587 63.0594 115.521 73.4471C113.763 82.2854 109.809 90.5112 104.055 97.3814C102.38 99.3821 102.361 102.361 104.207 104.207Z" fill="#D3D7DA"/>
<path id="gauge-graph-value" d="M21.7934 104.207C19.9481 106.052 16.9413 106.063 15.2395 104.085C9.80551 97.7678 5.66803 90.4229 3.08345 82.4683C0.498864 74.5138 -0.471087 66.1397 0.21209 57.8351C0.426042 55.2343 2.86505 53.4758 5.44247 53.884C8.01989 54.2923 9.75636 56.7132 9.57685 59.3166C9.10612 66.1433 9.94733 73.0124 12.0709 79.5481C14.1945 86.0839 17.5515 92.1355 21.945 97.3817C23.6204 99.3824 23.6386 102.362 21.7934 104.207Z" fill="#5F656D"/>
</g>
</svg>
