<svg width="126" height="106" viewBox="0 0 126 106" fill="none" xmlns="http://www.w3.org/2000/svg">
<g id="gauge-graph">
<path id="gauge-graph-bg" d="M104.207 104.207C106.052 106.052 109.059 106.063 110.761 104.084C117.822 95.8758 122.667 85.9627 124.79 75.2907C127.22 63.0699 125.973 50.4027 121.204 38.8909C116.436 27.3792 108.361 17.5399 98.001 10.6174C87.6407 3.69488 75.4603 -7.42933e-08 63 0C50.5398 7.42933e-08 38.3594 3.69489 27.9991 10.6174C17.6388 17.5399 9.56394 27.3792 4.79562 38.8909C0.0272969 50.4027 -1.22031 63.0699 1.21056 75.2907C3.33336 85.9627 8.17811 95.8758 15.2395 104.084C16.9413 106.063 19.9482 106.052 21.7934 104.207C23.6386 102.361 23.6203 99.3821 21.9449 97.3814C16.1914 90.5112 12.237 82.2854 10.479 73.4471C8.41274 63.0594 9.47321 52.2923 13.5263 42.5073C17.5794 32.7223 24.443 24.3589 33.2492 18.4748C42.0555 12.5907 52.4088 9.45 63 9.45C73.5912 9.45 83.9446 12.5907 92.7508 18.4748C101.557 24.3589 108.421 32.7223 112.474 42.5073C116.527 52.2923 117.587 63.0594 115.521 73.4471C113.763 82.2854 109.809 90.5112 104.055 97.3814C102.38 99.3821 102.361 102.361 104.207 104.207Z" fill="#D3D7DA"/>
<path id="gauge-graph-value" d="M21.7934 104.206C19.9481 106.052 16.9413 106.063 15.2395 104.084C9.80551 97.7673 5.66803 90.4224 3.08345 82.4678C0.0111827 73.0124 -0.779638 62.964 0.775642 53.1444C2.33092 43.3247 6.18814 34.0126 12.0319 25.9693C16.9481 19.2028 23.1528 13.4959 30.2729 9.16727C32.5027 7.81168 35.359 8.75124 36.5437 11.0764C37.7284 13.4015 36.7905 16.2293 34.5788 17.6143C28.7792 21.2462 23.7165 25.9642 19.6771 31.5239C14.7099 38.3607 11.4313 46.276 10.1093 54.6227C8.78731 62.9694 9.45951 71.5105 12.0709 79.5476C14.1945 86.0834 17.5515 92.135 21.945 97.3812C23.6204 99.3819 23.6386 102.361 21.7934 104.206Z" fill="#5F656D"/>
</g>
</svg>
