<svg width="24" height="24" viewBox="0 0 24 24" fill="none" xmlns="http://www.w3.org/2000/svg">
<path d="M19.4889 10.391V13.8821C19.9548 14.2199 20.5 14.8647 20.5 16.0725C20.5 16.7788 20.2225 17.4339 19.7268 17.9252C19.2114 18.437 18.5274 18.7133 17.8038 18.7133H5.95831C4.5309 18.7133 3.5 17.5976 3.5 16.0725C3.5 14.8954 3.96589 14.2403 4.47143 13.8719V9.54216C4.47143 5.66283 7.84169 2.5 11.9752 2.5H11.9851C13.075 2.5 14.1118 2.71917 15.0478 3.11324C14.7176 3.50772 14.4537 3.95965 14.2734 4.45186C13.5651 4.18348 12.7889 4.03535 11.9752 4.03535C8.65452 4.03535 5.95831 6.50216 5.95831 9.54216V14.4655C5.95831 14.7521 5.73032 14.9671 5.47259 15.0694C5.04636 15.2434 4.98688 15.6324 4.98688 16.0828C4.98688 16.6969 5.29417 17.1882 5.95831 17.1882H17.8137C18.1606 17.1882 18.4778 17.0449 18.6959 16.83C18.8942 16.6355 19.0131 16.3694 19.0131 16.0828C19.0131 15.6324 18.9041 15.2434 18.4778 15.0694C18.2201 14.9671 17.9921 14.7521 17.9921 14.4655V10.4717C18.1588 10.4904 18.3283 10.5 18.5 10.5C18.8397 10.5 19.1707 10.4623 19.4889 10.391Z" fill="#141414"/>
<path d="M9.25 20.74C9.25 20.3203 9.58579 19.98 10 19.98H14C14.4142 19.98 14.75 20.3203 14.75 20.74C14.75 21.1597 14.4142 21.5 14 21.5H10C9.58579 21.5 9.25 21.1597 9.25 20.74Z" fill="#141414"/>
<path d="M22 6C22 7.933 20.433 9.5 18.5 9.5C16.567 9.5 15 7.933 15 6C15 4.067 16.567 2.5 18.5 2.5C20.433 2.5 22 4.067 22 6Z" fill="#266BFF"/>
</svg>
