<svg width="24" height="24" viewBox="0 0 24 24" fill="none" xmlns="http://www.w3.org/2000/svg">
<path fill-rule="evenodd" clip-rule="evenodd" d="M4 18.2222C4 18.6518 4.32495 19 4.72581 19H18.2742C18.675 19 19 18.6518 19 18.2222C19 17.7927 18.675 17.4444 18.2742 17.4444H4.72581C4.32495 17.4444 4 17.7927 4 18.2222ZM4 12C4 12.4296 4.32495 12.7778 4.72581 12.7778H18.2742C18.675 12.7778 19 12.4296 19 12C19 11.5704 18.675 11.2222 18.2742 11.2222H4.72581C4.32495 11.2222 4 11.5704 4 12ZM4.72581 6.55556C4.32495 6.55556 4 6.20733 4 5.77778C4 5.34822 4.32495 5 4.72581 5H18.2742C18.675 5 19 5.34822 19 5.77778C19 6.20733 18.675 6.55556 18.2742 6.55556H4.72581Z" fill="#141414"/>
</svg>
