<svg width="24" height="24" viewBox="0 0 24 24" fill="none" xmlns="http://www.w3.org/2000/svg">
<path fill-rule="evenodd" clip-rule="evenodd" d="M12.0707 4.54545C8.46691 4.54545 5.54545 7.46691 5.54545 11.0707C5.54545 14.6745 8.46691 17.596 12.0707 17.596C13.8251 17.596 15.4178 16.9036 16.5904 15.7772C16.6156 15.7416 16.6441 15.7077 16.6759 15.6758C16.7078 15.644 16.7417 15.6155 16.7773 15.5904C17.9036 14.4177 18.596 12.8251 18.596 11.0707C18.596 7.46691 15.6745 4.54545 12.0707 4.54545ZM18.2979 16.2051C19.4496 14.8099 20.1414 13.0211 20.1414 11.0707C20.1414 6.61338 16.528 3 12.0707 3C7.61338 3 4 6.61338 4 11.0707C4 15.528 7.61338 19.1414 12.0707 19.1414C14.0211 19.1414 15.8099 18.4496 17.2051 17.2979L19.6809 19.7737C19.9826 20.0754 20.4719 20.0754 20.7737 19.7737C21.0754 19.4719 21.0754 18.9827 20.7737 18.6809L18.2979 16.2051Z" fill="#141414"/>
</svg>
