<svg width="24" height="24" viewBox="0 0 24 24" fill="none" xmlns="http://www.w3.org/2000/svg">
<path fill-rule="evenodd" clip-rule="evenodd" d="M9.42105 7.5C9.42105 5.79954 10.7995 4.42105 12.5 4.42105C14.2005 4.42105 15.5789 5.79954 15.5789 7.5C15.5789 9.20046 14.2005 10.5789 12.5 10.5789C10.7995 10.5789 9.42105 9.20046 9.42105 7.5ZM12.5 3C10.0147 3 8 5.01472 8 7.5C8 9.98528 10.0147 12 12.5 12C14.9853 12 17 9.98528 17 7.5C17 5.01472 14.9853 3 12.5 3ZM5.85198 18.4352C7.39663 16.0903 9.80671 14.6 12.5 14.6C15.1933 14.6 17.6034 16.0903 19.148 18.4352C19.3387 18.7247 19.439 18.8797 19.4996 19.004C19.5439 19.0946 19.5433 19.122 19.5429 19.1367L19.5428 19.1388C19.5429 19.1351 19.5429 19.1467 19.5366 19.1729C19.5306 19.1981 19.5208 19.2282 19.5073 19.2594C19.4937 19.2906 19.4791 19.3168 19.4663 19.3359C19.461 19.3437 19.457 19.3491 19.4543 19.3524C19.4411 19.358 19.4085 19.3685 19.3412 19.3778C19.1901 19.3985 18.9809 19.4 18.612 19.4H6.38797C6.01912 19.4 5.80985 19.3985 5.65883 19.3778C5.5915 19.3685 5.55891 19.358 5.54568 19.3524C5.54305 19.3491 5.53896 19.3437 5.53371 19.3359C5.52091 19.3168 5.50629 19.2906 5.49273 19.2594C5.4792 19.2282 5.4694 19.1981 5.46337 19.1729C5.45786 19.1499 5.45716 19.1388 5.45716 19.1388L5.45711 19.1367C5.45675 19.122 5.45607 19.0946 5.50035 19.004C5.56102 18.8797 5.6613 18.7247 5.85198 18.4352ZM19.4619 19.3482C19.4619 19.3482 19.4607 19.3494 19.4567 19.3513C19.4596 19.349 19.4619 19.3482 19.4619 19.3482ZM5.53813 19.3482C5.53813 19.3482 5.54035 19.349 5.54326 19.3513C5.53933 19.3494 5.53813 19.3482 5.53813 19.3482ZM12.5 13C9.29757 13 6.46463 14.7751 4.6713 17.4975C4.64969 17.5303 4.62775 17.5633 4.60564 17.5966C4.31278 18.0374 3.98998 18.5232 4.00024 19.1668C4.00476 19.4501 4.08031 19.7241 4.17728 19.9476C4.27379 20.17 4.42067 20.4095 4.62248 20.5911C4.89315 20.8348 5.1934 20.9262 5.47768 20.9653C5.73029 21.0001 6.03266 21 6.35076 21H6.35078L6.38797 21L18.6492 21H18.6492C18.9673 21 19.2697 21.0001 19.5223 20.9653C19.8066 20.9262 20.1068 20.8348 20.3775 20.5911C20.5793 20.4095 20.7262 20.17 20.8227 19.9476C20.9197 19.7241 20.9952 19.4501 20.9998 19.1668C21.01 18.5232 20.6872 18.0374 20.3944 17.5966C20.3722 17.5633 20.3503 17.5303 20.3287 17.4975C18.5354 14.7751 15.7024 13 12.5 13Z" fill="#141414"/>
</svg>
