<svg width="24" height="24" viewBox="0 0 24 24" fill="none" xmlns="http://www.w3.org/2000/svg">
<path fill-rule="evenodd" clip-rule="evenodd" d="M18.4921 9.04216C18.4921 6.00216 15.7959 3.53535 12.4752 3.53535C9.15452 3.53535 6.45831 6.00216 6.45831 9.04216V13.9655C6.45831 14.2521 6.23032 14.4671 5.97259 14.5694C5.54636 14.7434 5.48688 15.1324 5.48688 15.5828C5.48688 16.1969 5.79417 16.6882 6.45831 16.6882H18.3137C18.6606 16.6882 18.9778 16.5449 19.1959 16.33C19.3942 16.1355 19.5131 15.8694 19.5131 15.5828C19.5131 15.1324 19.4041 14.7434 18.9778 14.5694C18.7201 14.4671 18.4921 14.2521 18.4921 13.9655V9.04216ZM4.97143 9.04216C4.97143 5.16283 8.34169 2 12.4752 2H12.4851C16.6187 2 19.9889 5.15259 19.9889 9.04216V13.3821C20.4548 13.7199 21 14.3647 21 15.5725C21 16.2788 20.7225 16.9339 20.2268 17.4252C19.7114 17.937 19.0274 18.2133 18.3038 18.2133H6.45831C5.0309 18.2133 4 17.0976 4 15.5725C4 14.3954 4.46589 13.7403 4.97143 13.3719V9.04216ZM10.5 19.48C10.0858 19.48 9.75 19.8203 9.75 20.24C9.75 20.6597 10.0858 21 10.5 21H14.5C14.9142 21 15.25 20.6597 15.25 20.24C15.25 19.8203 14.9142 19.48 14.5 19.48H10.5Z" fill="#141414"/>
</svg>
