<svg width="16" height="16" viewBox="0 0 16 16" fill="none" xmlns="http://www.w3.org/2000/svg">
<circle cx="8" cy="8" r="8" fill="#F04438"/>
<path fill-rule="evenodd" clip-rule="evenodd" d="M5.17573 6.02413C4.94142 5.78981 4.94142 5.40992 5.17573 5.17561C5.41004 4.9413 5.78994 4.9413 6.02425 5.17561L8 7.15136L9.97575 5.17561C10.2101 4.9413 10.59 4.9413 10.8243 5.17561C11.0586 5.40992 11.0586 5.78981 10.8243 6.02413L8.84851 7.99988L10.8242 9.97553C11.0585 10.2098 11.0585 10.5897 10.8242 10.824C10.5899 11.0584 10.21 11.0584 9.97565 10.824L8 8.84839L6.02434 10.824C5.79003 11.0584 5.41014 11.0584 5.17583 10.824C4.94152 10.5897 4.94152 10.2098 5.17583 9.97553L7.15149 7.99988L5.17573 6.02413Z" fill="white"/>
</svg>
