<svg width="20" height="20" viewBox="0 0 20 20" fill="none" xmlns="http://www.w3.org/2000/svg">
<path fill-rule="evenodd" clip-rule="evenodd" d="M10 18C14.4183 18 18 14.4183 18 10C18 5.58172 14.4183 2 10 2C5.58172 2 2 5.58172 2 10C2 14.4183 5.58172 18 10 18ZM9.85685 7.44081C10.1897 7.44081 10.475 7.32194 10.7127 7.0842C10.9505 6.84118 11.0693 6.55324 11.0693 6.22041C11.0693 5.877 10.9505 5.58907 10.7127 5.35661C10.475 5.11887 10.1897 5 9.85685 5C9.52401 5 9.23608 5.11887 8.99306 5.35661C8.75531 5.58907 8.63644 5.877 8.63644 6.22041C8.63644 6.55324 8.75531 6.84118 8.99306 7.0842C9.23608 7.32194 9.52401 7.44081 9.85685 7.44081ZM8.41455 14.0025H11.6161C11.8327 14.0025 12.015 13.9338 12.1629 13.7964C12.3162 13.6538 12.3928 13.4662 12.3928 13.2338C12.3928 13.0277 12.3162 12.8534 12.1629 12.7107C12.015 12.5628 11.8327 12.4889 11.6161 12.4889H10.9822V9.44577C10.9822 9.14463 10.9082 8.90424 10.7603 8.72462C10.6176 8.54499 10.4037 8.45518 10.1184 8.45518H8.57305C8.34587 8.45518 8.15832 8.52914 8.01039 8.67707C7.86246 8.825 7.7885 9.00462 7.7885 9.21595C7.7885 9.43784 7.86246 9.62011 8.01039 9.76275C8.15832 9.9054 8.34587 9.97672 8.57305 9.97672H9.2625V12.4889H8.41455C8.19794 12.4889 8.01303 12.5628 7.85982 12.7107C7.70661 12.8534 7.63 13.0277 7.63 13.2338C7.63 13.4662 7.70661 13.6538 7.85982 13.7964C8.01303 13.9338 8.19794 14.0025 8.41455 14.0025Z" fill="white"/>
</svg>
