<svg width="24" height="24" viewBox="0 0 24 24" fill="none" xmlns="http://www.w3.org/2000/svg">
<path fill-rule="evenodd" clip-rule="evenodd" d="M16.1999 8.16C16.4399 6.96 15.9599 5.64 14.7599 5.04C13.9199 4.56 12.9599 4.68 12.3599 5.16C11.7599 5.64 11.2799 6.36 11.1599 7.2C11.1599 8.28 10.5599 9 9.8399 9.24C8.9999 9.6 8.3999 10.56 8.3999 11.4V15.36C8.3999 16.8 9.5999 18 11.0399 18H16.3199C17.6399 18 18.7199 17.04 18.9599 15.72L19.6799 11.88C19.9199 10.08 18.7199 8.52 16.9199 8.52H16.0799L16.1999 8.16Z" fill="#266BFF"/>
<path fill-rule="evenodd" clip-rule="evenodd" d="M5.2801 9.6C4.4401 9.6 3.6001 10.2 3.6001 11.28V16.2C3.6001 17.04 4.2001 17.88 5.2801 17.88H6.0001C7.0801 17.88 7.6801 17.04 7.6801 16.2V11.28C7.5601 10.44 6.9601 9.6 5.8801 9.6H5.2801Z" fill="#266BFF"/>
</svg>
