<svg width="24" height="24" viewBox="0 0 24 24" fill="none" xmlns="http://www.w3.org/2000/svg">
<path fill-rule="evenodd" clip-rule="evenodd" d="M16.2509 8.21017C16.521 6.99459 15.9935 5.72423 14.8634 5.13546C14.0076 4.61224 13.0962 4.74138 12.4188 5.24466C11.7793 5.71967 11.369 6.49703 11.2444 7.3066L11.2392 7.34037L11.2366 7.37443C11.1665 8.28597 10.617 9.0006 9.84915 9.25655L9.82406 9.26491L9.79951 9.27473C8.95668 9.61187 8.37654 10.5319 8.37654 11.4438V15.3489C8.37654 16.7985 9.54146 17.9634 10.991 17.9634H16.3248C17.6484 17.9634 18.7411 16.9586 19.0131 15.7347L19.0151 15.7253L19.7829 11.8863L19.786 11.8664C20.0555 10.1145 18.8127 8.54364 16.9915 8.54364H16.1679L16.2483 8.22173L16.2509 8.21017ZM10.4557 10.9515C11.9397 10.4398 12.8956 9.08772 13.0281 7.55198C13.0987 7.13767 13.3025 6.8305 13.4921 6.6896C13.582 6.62281 13.6529 6.60351 13.7013 6.60061C13.7441 6.59805 13.8201 6.6046 13.9367 6.6788L13.9758 6.70373L14.0174 6.72449C14.3805 6.90606 14.5984 7.32958 14.4959 7.80973L14.1866 9.0471V9.1579C14.1866 9.44243 14.3019 9.70702 14.4552 9.89871C14.6314 10.1189 14.9425 10.3436 15.3723 10.3436H16.9915C17.6415 10.3436 18.1107 10.8598 18.0095 11.5752L17.2541 15.3521C17.1423 15.8383 16.7135 16.1634 16.3248 16.1634H10.991C10.5356 16.1634 10.1765 15.8044 10.1765 15.3489V11.4438C10.1765 11.2212 10.3453 11.0062 10.4557 10.9515Z" fill="#266BFF"/>
<path fill-rule="evenodd" clip-rule="evenodd" d="M5.26195 9.5912C4.45922 9.5912 3.59998 10.2078 3.59998 11.2532V16.206C3.59998 17.0087 4.21654 17.868 5.26195 17.868H5.92868C6.97408 17.868 7.59065 17.0087 7.59065 16.206V11.2532C7.59065 10.4504 6.97408 9.5912 5.92868 9.5912H5.26195ZM5.39998 16.068V11.3912H5.79065V16.068H5.39998Z" fill="#266BFF"/>
</svg>
