<svg width="20" height="21" viewBox="0 0 20 21" fill="none" xmlns="http://www.w3.org/2000/svg">
<path d="M16.0835 10.5003C16.0835 13.837 13.3785 16.542 10.0418 16.542C6.70511 16.542 4.00016 13.837 4.00016 10.5003C4.00016 7.16361 6.70511 4.45866 10.0418 4.45866C13.3785 4.45866 16.0835 7.16361 16.0835 10.5003Z" fill="#C9DAFF"/>
<path d="M4.5835 10.4587C4.5835 7.46712 7.00862 5.04199 10.0002 5.04199C12.9917 5.04199 15.4168 7.46712 15.4168 10.4587C15.4168 13.4502 12.9917 15.8753 10.0002 15.8753C8.477 15.8753 7.10032 15.2469 6.11561 14.2337L8.02031 14.1723C8.36531 14.1612 8.63597 13.8725 8.62484 13.5275C8.61371 13.1825 8.32501 12.9118 7.98001 12.923L4.83704 13.0243C4.50767 13.035 4.24314 13.2995 4.23252 13.6289L4.12038 17.1052C4.10925 17.4502 4.3799 17.7389 4.7249 17.75C5.0699 17.7611 5.3586 17.4905 5.36973 17.1455L5.4289 15.3112C6.62198 16.4355 8.23038 17.1253 10.0002 17.1253C13.6821 17.1253 16.6668 14.1406 16.6668 10.4587C16.6668 6.77676 13.6821 3.79199 10.0002 3.79199C6.31826 3.79199 3.3335 6.77676 3.3335 10.4587C3.3335 10.8038 3.61332 11.0837 3.9585 11.0837C4.30367 11.0837 4.5835 10.8038 4.5835 10.4587Z" fill="#266BFF"/>
<path fill-rule="evenodd" clip-rule="evenodd" d="M4.02874 4.52896C4.28909 4.26861 4.7112 4.26861 4.97155 4.52896L15.9715 15.529C16.2319 15.7893 16.2319 16.2114 15.9715 16.4718C15.7112 16.7321 15.2891 16.7321 15.0287 16.4718L4.02874 5.47177C3.76839 5.21142 3.76839 4.78931 4.02874 4.52896Z" fill="#F04438"/>
</svg>
