<svg width="44" height="44" viewBox="0 0 44 44" fill="none" xmlns="http://www.w3.org/2000/svg">
<path d="M19.2571 43.8284C15.8778 43.4037 12.6301 42.1984 9.77746 40.2923C6.15958 37.8749 3.33979 34.439 1.67466 30.419C0.00953218 26.3991 -0.426141 21.9756 0.422734 17.708C1.27161 13.4404 3.3669 9.52041 6.44366 6.44366C9.52041 3.3669 13.4404 1.27161 17.708 0.422734C21.9756 -0.426141 26.3991 0.00953218 30.419 1.67466C34.439 3.33979 37.8749 6.15958 40.2923 9.77746C42.1984 12.6301 43.4037 15.8778 43.8284 19.2571C44.0177 20.764 42.7688 22 41.25 22C39.7312 22 38.5233 20.7604 38.2714 19.2627C38.1131 18.3221 37.8737 17.3977 37.5564 16.5C37.1013 15.2128 36.4858 13.9803 35.7192 12.8331C33.9062 10.1197 31.3293 8.00484 28.3143 6.756C25.2993 5.50715 21.9817 5.1804 18.781 5.81705C15.5803 6.45371 12.6403 8.02518 10.3327 10.3327C8.02518 12.6403 6.45371 15.5803 5.81705 18.781C5.1804 21.9817 5.50715 25.2993 6.756 28.3143C8.00484 31.3293 10.1197 33.9062 12.8331 35.7192C13.9803 36.4858 15.2128 37.1013 16.5 37.5564C17.3977 37.8737 18.3221 38.1131 19.2627 38.2714C20.7604 38.5233 22 39.7312 22 41.25C22 42.7688 20.764 44.0177 19.2571 43.8284Z" fill="url(#paint0_angular_650_37872)"/>
<defs>
<radialGradient id="paint0_angular_650_37872" cx="0" cy="0" r="1" gradientUnits="userSpaceOnUse" gradientTransform="translate(22 22) rotate(90) scale(22)">
<stop stop-color="white" stop-opacity="0"/>
<stop offset="0.750075" stop-color="#757575"/>
</radialGradient>
</defs>
</svg>
