<svg width="32" height="32" viewBox="0 0 32 32" fill="none" xmlns="http://www.w3.org/2000/svg">
<path d="M14.0052 31.8752C11.5475 31.5664 9.18552 30.6897 7.11088 29.3035C4.4797 27.5454 2.42894 25.0466 1.21793 22.1229C0.0069325 19.1993 -0.309921 15.9823 0.307443 12.8786C0.924806 9.77487 2.44866 6.92394 4.6863 4.6863C6.92394 2.44866 9.77487 0.924806 12.8786 0.307443C15.9823 -0.309921 19.1993 0.0069325 22.1229 1.21793C25.0466 2.42894 27.5454 4.4797 29.3035 7.11088C30.6897 9.18552 31.5664 11.5475 31.8752 14.0052C32.0129 15.1011 31.1046 16 30 16C28.8954 16 28.017 15.0985 27.8337 14.0092C27.7186 13.3252 27.5445 12.6529 27.3137 12C26.9827 11.0639 26.5351 10.1675 25.9776 9.33316C24.6591 7.35977 22.7849 5.8217 20.5922 4.91345C18.3995 4.0052 15.9867 3.76756 13.6589 4.23058C11.3312 4.69361 9.19296 5.8365 7.51473 7.51473C5.8365 9.19296 4.69361 11.3312 4.23058 13.6589C3.76756 15.9867 4.0052 18.3995 4.91345 20.5922C5.8217 22.7849 7.35978 24.6591 9.33317 25.9776C10.1675 26.5351 11.0639 26.9827 12 27.3137C12.6529 27.5445 13.3252 27.7186 14.0092 27.8337C15.0985 28.017 16 28.8954 16 30C16 31.1046 15.1011 32.0129 14.0052 31.8752Z" fill="url(#paint0_angular_650_37874)"/>
<defs>
<radialGradient id="paint0_angular_650_37874" cx="0" cy="0" r="1" gradientUnits="userSpaceOnUse" gradientTransform="translate(16 16) rotate(90) scale(16)">
<stop stop-color="white" stop-opacity="0"/>
<stop offset="0.750075" stop-color="#757575"/>
</radialGradient>
</defs>
</svg>
