<svg width="212" height="22" viewBox="0 0 212 22" fill="none" xmlns="http://www.w3.org/2000/svg">
<g clip-path="url(#clip0_1372_113)">
<path d="M2.93412 4.30591V7.83344H8.7181V10.6394H2.93412V16.3794H0V1.5H8.8866V4.30591H2.93412Z" fill="black"/>
<path d="M21.993 5.7491V16.3793H19.2493V15.1266C18.4837 16.0826 17.3372 16.6797 15.7841 16.6797C12.9562 16.6797 10.6191 14.2328 10.6191 11.0679C10.6191 7.90298 12.9598 5.45605 15.7841 5.45605C17.3372 5.45605 18.4837 6.04947 19.2493 7.00919V5.75643H21.993V5.7491ZM19.2493 11.0642C19.2493 9.27663 17.9966 8.06782 16.2932 8.06782C14.5899 8.06782 13.3591 9.2803 13.3591 11.0642C13.3591 12.8481 14.6119 14.0606 16.2932 14.0606C17.9746 14.0606 19.2493 12.8481 19.2493 11.0642Z" fill="black"/>
<path d="M38.2568 8.38672V12.808C38.2568 13.9546 39.0847 13.9766 40.6598 13.8923V16.3795C36.8136 16.8044 35.5168 15.6799 35.5168 12.808V8.38672H33.667V5.74931H35.5168V2.7749H38.2605V5.75298H40.6634V8.39038H38.2605L38.2568 8.38672Z" fill="black"/>
<path d="M68.573 5.7491V16.3793H65.8294V15.1266C65.0638 16.0826 63.9173 16.6797 62.3641 16.6797C59.5363 16.6797 57.1992 14.2328 57.1992 11.0679C57.1992 7.90298 59.5399 5.45605 62.3641 5.45605C63.9173 5.45605 65.0638 6.04947 65.8294 7.00919V5.75643H68.573V5.7491ZM65.8294 11.0642C65.8294 9.27663 64.5766 8.06782 62.8733 8.06782C61.17 8.06782 59.9392 9.2803 59.9392 11.0642C59.9392 12.8481 61.192 14.0606 62.8733 14.0606C64.5547 14.0606 65.8294 12.8481 65.8294 11.0642Z" fill="black"/>
<path d="M86.9101 9.83342V16.3793H84.1665V10.0239C84.1665 8.77113 83.5291 8.00189 82.3789 8.00189C81.1664 8.00189 80.4009 8.81143 80.4009 10.4049V16.3793H77.6572V10.0239C77.6572 8.77113 77.0199 8.00189 75.8696 8.00189C74.7194 8.00189 73.8696 8.81143 73.8696 10.4049V16.3793H71.126V5.7491H73.8696V6.87366C74.463 5.97988 75.463 5.44873 76.8257 5.44873C78.1884 5.44873 79.1225 6.00185 79.7159 6.97989C80.3752 6.02383 81.4375 5.44873 82.8844 5.44873C85.3094 5.44873 86.9028 7.17037 86.9028 9.82976L86.9101 9.83342Z" fill="black"/>
<path d="M100.845 11.0642C100.845 14.2328 98.5075 16.676 95.6576 16.676C94.1082 16.676 92.9799 16.1009 92.2143 15.1229V20.6285H89.4707V5.7491H92.2143V7.00187C92.9799 6.02383 94.1045 5.44873 95.6576 5.44873C98.5075 5.44873 100.845 7.89566 100.845 11.0605V11.0642ZM98.1009 11.0642C98.1009 9.27664 96.8481 8.06782 95.1448 8.06782C93.4415 8.06782 92.2107 9.2803 92.2107 11.0642C92.2107 12.8481 93.4634 14.0606 95.1448 14.0606C96.8261 14.0606 98.1009 12.8481 98.1009 11.0642Z" fill="black"/>
<path d="M112.676 5.74902V16.3792H109.932V15.1887C109.295 16.1448 108.188 16.676 106.764 16.676C104.511 16.676 102.745 15.1045 102.745 12.2729V5.75269H105.489V11.9396C105.489 13.3865 106.361 14.1301 107.595 14.1301C108.932 14.1301 109.932 13.3426 109.932 11.4927V5.75269H112.676V5.74902Z" fill="black"/>
<path d="M27.1434 8.77113C27.1434 8.19603 27.6966 7.89932 28.3779 7.89932C28.7222 7.89932 29.0262 7.97991 29.29 8.12277C29.6819 8.32057 30.0006 8.61362 30.2351 8.89934L32.4182 7.70884C31.5904 6.23995 30.0995 5.45605 28.3779 5.45605C26.1874 5.45605 24.3375 6.66853 24.3375 8.83707C24.3375 12.5771 29.8211 11.7272 29.8211 13.2804C29.8211 13.8958 29.2277 14.1925 28.3522 14.1925C28.2314 14.1925 28.1178 14.1851 28.0079 14.1705C27.7002 14.1339 27.4291 14.0496 27.1947 13.9214C26.7222 13.6833 26.3559 13.3133 26.0811 12.9177L23.8906 14.1522C24.6562 15.7896 26.2277 16.6834 28.3559 16.6834C30.6307 16.6834 32.627 15.5771 32.627 13.2804C32.627 9.36821 27.1434 10.3462 27.1434 8.77479V8.77113Z" fill="black"/>
<path d="M117.826 8.77113C117.826 8.19603 118.379 7.89932 119.06 7.89932C119.405 7.89932 119.709 7.97991 119.973 8.12277C120.365 8.32057 120.683 8.61362 120.918 8.89934L123.101 7.70884C122.273 6.23995 120.782 5.45605 119.06 5.45605C116.87 5.45605 115.02 6.66853 115.02 8.83707C115.02 12.5771 120.504 11.7272 120.504 13.2804C120.504 13.8958 119.91 14.1925 119.035 14.1925C118.914 14.1925 118.8 14.1851 118.691 14.1705C118.383 14.1339 118.112 14.0496 117.877 13.9214C117.405 13.6833 117.038 13.3133 116.764 12.9177L114.573 14.1522C115.339 15.7896 116.91 16.6834 119.039 16.6834C121.313 16.6834 123.31 15.5771 123.31 13.2804C123.31 9.36821 117.826 10.3462 117.826 8.77479V8.77113Z" fill="black"/>
<path d="M53.9238 12.61C53.4366 13.4452 52.5464 13.9544 51.4658 13.9544C51.4512 13.9544 51.4402 13.9544 51.4255 13.9544C51.4109 13.9544 51.3962 13.9544 51.3816 13.9544C49.7442 13.9544 48.5317 12.7419 48.5317 11.0642C48.5317 9.38653 49.7442 8.15207 51.3816 8.15207C51.3999 8.15207 51.4146 8.15207 51.4292 8.15207C51.4439 8.15207 51.4549 8.15207 51.4658 8.15207C52.5464 8.15207 53.4402 8.66124 53.9274 9.50008L56.1619 8.19237C55.2901 6.55498 53.4842 5.44873 51.3999 5.44873C48.1691 5.44873 45.7881 7.89566 45.7881 11.0605C45.7881 14.2254 48.1691 16.6724 51.3999 16.6724C53.4842 16.6724 55.2901 15.5661 56.2058 13.9068L53.9238 12.6027V12.61Z" fill="black"/>
<path d="M139.284 5.57696C137.42 5.57696 135.933 6.47807 135.054 7.88103V1.63916H133.669V16.3061H135.054V14.2511C135.933 15.6541 137.42 16.5552 139.284 16.5552C142.241 16.5552 144.691 14.1669 144.691 11.0642C144.691 7.96161 142.241 5.57329 139.284 5.57329V5.57696ZM139.178 15.2145C136.852 15.2145 135.05 13.3903 135.05 11.0642C135.05 8.73818 136.852 6.91398 139.178 6.91398C141.504 6.91398 143.306 8.73818 143.306 11.0642C143.306 13.3903 141.504 15.2145 139.178 15.2145Z" fill="#1B72FF"/>
<path d="M154.366 5.82959V11.3205C154.366 14.1264 152.816 15.218 150.97 15.218C149.124 15.218 148.12 14.1301 148.12 12.2656V5.82959H146.735V12.2619C146.735 14.881 148.285 16.5587 150.842 16.5587C152.329 16.5587 153.545 15.9946 154.362 14.6722V16.306H155.746V5.82959H154.362H154.366Z" fill="#1B72FF"/>
<path d="M159.765 8.57354C159.765 7.44165 160.875 6.91783 161.966 6.91783C162.974 6.91783 164.04 7.31711 164.479 8.38306L165.633 7.71272C165.025 6.41233 163.684 5.57715 161.966 5.57715C159.871 5.57715 158.384 6.89585 158.384 8.57354C158.384 12.4271 164.501 10.9399 164.501 13.5407C164.501 14.7751 163.329 15.2183 162.091 15.2183C160.688 15.2183 159.596 14.526 159.219 13.4601L158.047 14.1524C158.571 15.4931 159.996 16.5627 162.091 16.5627C164.333 16.5627 165.882 15.3246 165.882 13.5443C165.882 9.69077 159.765 11.178 159.765 8.5772V8.57354Z" fill="#1B72FF"/>
<path d="M168.78 3.6099C169.344 3.6099 169.787 3.14836 169.787 2.60256C169.787 2.05676 169.348 1.59521 168.78 1.59521C168.212 1.59521 167.772 2.05676 167.772 2.60256C167.772 3.14836 168.212 3.6099 168.78 3.6099ZM168.087 16.3061H169.472V5.82972H168.087V16.3061Z" fill="#1B72FF"/>
<path d="M177.307 5.57691C175.82 5.57691 174.604 6.14102 173.787 7.46338V5.82966H172.402V16.306H173.787V10.8151C173.787 8.00918 175.336 6.91759 177.183 6.91759C179.029 6.91759 180.033 8.00552 180.033 9.87002V16.3024H181.417V9.87002C181.417 7.25093 179.868 5.57324 177.311 5.57324L177.307 5.57691Z" fill="#1B72FF"/>
<path d="M188.926 5.57715C185.677 5.57715 183.457 7.98745 183.457 11.0681C183.457 14.1487 185.721 16.559 189.029 16.559C191.146 16.559 192.758 15.5737 193.637 14.1487L192.421 13.4381C191.856 14.4454 190.703 15.2183 189.047 15.2183C186.827 15.2183 185.171 13.8996 184.878 11.7604H194.076C194.098 11.5516 194.117 11.3208 194.117 11.112C194.117 8.2402 192.128 5.58081 188.922 5.58081L188.926 5.57715ZM188.926 6.91783C190.728 6.91783 192.402 8.11199 192.699 10.4161H184.882C185.153 8.36108 186.724 6.91783 188.926 6.91783Z" fill="#1B72FF"/>
<path d="M197.003 8.57354C197.003 7.44165 198.113 6.91783 199.205 6.91783C200.212 6.91783 201.278 7.31711 201.718 8.38306L202.872 7.71272C202.264 6.41233 200.923 5.57715 199.205 5.57715C197.11 5.57715 195.622 6.89585 195.622 8.57354C195.622 12.4271 201.74 10.9399 201.74 13.5407C201.74 14.7751 200.568 15.2183 199.333 15.2183C197.93 15.2183 196.839 14.526 196.461 13.4601L195.289 14.1524C195.813 15.4931 197.238 16.5627 199.333 16.5627C201.575 16.5627 203.124 15.3246 203.124 13.5443C203.124 9.69077 197.007 11.178 197.007 8.5772L197.003 8.57354Z" fill="#1B72FF"/>
<path d="M205.883 8.57354C205.883 7.44165 206.993 6.91783 208.084 6.91783C209.092 6.91783 210.158 7.31711 210.601 8.38306L211.755 7.71272C211.147 6.41233 209.806 5.57715 208.088 5.57715C205.993 5.57715 204.505 6.89585 204.505 8.57354C204.505 12.4271 210.626 10.9399 210.626 13.5407C210.626 14.7751 209.454 15.2183 208.216 15.2183C206.813 15.2183 205.722 14.526 205.348 13.4601L204.176 14.1524C204.7 15.4931 206.125 16.5627 208.22 16.5627C210.462 16.5627 212.011 15.3246 212.011 13.5443C212.011 9.69077 205.894 11.178 205.894 8.5772L205.883 8.57354Z" fill="#1B72FF"/>
</g>
<defs>
<clipPath id="clip0_1372_113">
<rect width="212" height="19.1322" fill="white" transform="translate(0 1.5)"/>
</clipPath>
</defs>
</svg>
