<svg width="124" height="36" viewBox="0 0 124 36" fill="none" xmlns="http://www.w3.org/2000/svg">
<path d="M21.7878 18.741C20.9438 17.1842 21.6977 15.354 23.4828 14.6662L32.6305 11.1179C33.9417 10.6129 34.5013 9.04545 33.8297 7.80683L30.6807 2L14.5664 8.26182C13.3213 8.74051 12.3788 9.62493 11.925 10.738C11.4607 11.8501 11.5393 13.0664 12.1289 14.1571L13.8168 17.2707C14.6608 18.8275 13.9068 20.6576 12.1218 21.3455L2.96455 24.8821C1.65336 25.3871 1.09377 26.9545 1.7653 28.1932L4.91438 34L21.0287 27.7382C23.5964 26.7448 24.691 24.1041 23.4756 21.8546L21.7878 18.741Z" fill="url(#paint0_linear_321_97992)"/>
<path d="M47.4463 15.5785C47.1875 15.1059 46.805 14.7347 46.3213 14.4872C45.8375 14.2397 45.2638 14.1159 44.6112 14.1159C44.3075 14.1159 43.9813 14.161 43.6325 14.2397C43.2838 14.3185 42.9575 14.4534 42.6425 14.6334C42.3387 14.8247 42.0575 15.0497 41.8213 15.331C41.585 15.6122 41.4275 15.9609 41.3488 16.3659C41.2475 16.8947 41.3713 17.3222 41.7313 17.626C42.0913 17.941 42.6088 18.2222 43.3063 18.4922C44.06 18.7734 44.735 19.0885 45.3088 19.4372C45.8825 19.786 46.3438 20.1797 46.7038 20.6184C47.0638 21.0572 47.3 21.5634 47.4238 22.1147C47.5475 22.6772 47.5475 23.3072 47.4125 24.016C47.1988 25.1522 46.7825 26.1084 46.1638 26.9072C45.545 27.7059 44.8138 28.3585 43.9813 28.8535C43.1488 29.3597 42.2375 29.7197 41.2813 29.956C40.3138 30.181 39.38 30.3047 38.48 30.3047C37.805 30.3047 37.1413 30.2372 36.5 30.1134C35.8475 29.9897 35.24 29.8097 34.6663 29.5735C34.0925 29.3372 33.575 29.0335 33.1137 28.6622C32.6525 28.291 32.2813 27.8634 32 27.3909L35.7688 24.7359C36.0388 25.2984 36.5 25.7597 37.1525 26.1197C37.805 26.4685 38.5138 26.6485 39.2563 26.6485C39.65 26.6485 40.0325 26.6034 40.4038 26.5247C40.7863 26.4459 41.1238 26.311 41.45 26.131C41.765 25.9397 42.035 25.7034 42.26 25.4109C42.485 25.1185 42.6313 24.7697 42.71 24.3647C42.8338 23.7122 42.665 23.1947 42.2038 22.8122C41.7425 22.4297 41.1013 22.0922 40.2688 21.7885C39.6838 21.5747 39.155 21.3385 38.66 21.0685C38.165 20.7985 37.76 20.4722 37.4338 20.0897C37.1075 19.696 36.8825 19.2347 36.7363 18.6947C36.6013 18.1547 36.6013 17.5022 36.7363 16.7484C36.9163 15.7922 37.2763 14.9259 37.8163 14.1609C38.3563 13.3959 39.0313 12.7322 39.8188 12.1922C40.6063 11.6522 41.495 11.236 42.4625 10.9435C43.4413 10.651 44.4425 10.5047 45.4888 10.5047C46.04 10.5047 46.58 10.561 47.1313 10.6622C47.6713 10.7635 48.1888 10.9209 48.6725 11.1234C49.1563 11.3259 49.595 11.5734 49.9775 11.8772C50.36 12.181 50.675 12.5185 50.9 12.9122L47.4013 15.5672L47.4463 15.5785Z" fill="#2D3136"/>
<path d="M56.9752 29.7646L54.804 23.4196H54.7252L52.419 29.7646H48.1777L55.4902 9.70587H59.7652L55.2877 21.9121H55.3665L61.3965 16.5571H66.7515L59.214 22.7446L62.0602 29.7759H56.9977L56.9752 29.7646Z" fill="#2D3136"/>
<path d="M63.5005 29.7646L68.293 16.5459H72.568L67.7192 29.7646H63.5005ZM74.3117 12.1134C74.2442 12.4621 74.1205 12.7996 73.9405 13.0921C73.7605 13.3959 73.5355 13.6659 73.2655 13.9021C72.9955 14.1384 72.703 14.3296 72.3767 14.4646C72.0505 14.5996 71.713 14.6671 71.353 14.6671C70.678 14.6671 70.1605 14.4646 69.8117 14.0709C69.4517 13.6771 69.328 13.1596 69.4517 12.5409C69.5867 11.8209 69.9467 11.2134 70.5205 10.7184C71.0942 10.2346 71.7355 9.98712 72.4442 9.98712C73.0967 9.98712 73.603 10.1896 73.9517 10.5946C74.3005 10.9996 74.413 11.5059 74.3005 12.1021L74.3117 12.1134Z" fill="#2D3136"/>
<path d="M71.4092 29.7646L78.7217 9.70587H83.0417L75.7067 29.7646H71.4092Z" fill="#2D3136"/>
<path d="M79.374 29.7646L86.6865 9.70587H91.0065L83.6715 29.7646H79.374Z" fill="#2D3136"/>
<path d="M101.233 12.8563C100.929 12.71 100.569 12.6425 100.153 12.6425C99.7367 12.6425 99.4329 12.71 99.1404 12.8563C98.8592 13.0025 98.6004 13.1938 98.3867 13.43C98.1617 13.6663 97.9817 13.9363 97.8242 14.24C97.6667 14.5438 97.5429 14.8363 97.4304 15.14L96.9242 16.5463H99.8942L98.7354 19.73H95.8217L92.1542 29.765H87.9917L91.6592 19.73H89.2404L90.3992 16.5463H92.7392L93.2567 15.1963C93.5379 14.4313 93.8867 13.6888 94.2917 12.9688C94.6967 12.2488 95.1917 11.6075 95.7767 11.045C96.3729 10.4825 97.0704 10.0438 97.8692 9.70626C98.6792 9.36876 99.6129 9.20001 100.693 9.20001C101.042 9.20001 101.39 9.22251 101.739 9.26751C102.088 9.31251 102.38 9.38001 102.628 9.47001L101.222 12.8675L101.233 12.8563ZM97.0142 29.765L104.327 9.70626H108.624L101.312 29.765H97.0142Z" fill="#2D3136"/>
<path d="M111.853 30.1369C110.896 30.1369 110.03 30.0019 109.265 29.7431C108.5 29.4844 107.859 29.0906 107.364 28.5844C106.869 28.0781 106.509 27.4706 106.306 26.7506C106.093 26.0306 106.081 25.2206 106.25 24.3206C106.453 23.2181 106.835 22.1831 107.398 21.1931C107.96 20.2031 108.658 19.3369 109.49 18.5944C110.334 17.8519 111.29 17.2556 112.359 16.8169C113.428 16.3781 114.598 16.1531 115.858 16.1531C116.825 16.1531 117.703 16.2881 118.49 16.5469C119.266 16.8169 119.919 17.1994 120.425 17.7056C120.931 18.2119 121.291 18.8194 121.505 19.5394C121.719 20.2594 121.73 21.0694 121.561 21.9694C121.348 23.0831 120.965 24.1406 120.414 25.1306C119.851 26.1206 119.154 26.9869 118.31 27.7294C117.466 28.4719 116.499 29.0569 115.419 29.4956C114.339 29.9231 113.158 30.1481 111.886 30.1481L111.853 30.1369ZM117.264 22.4081C117.41 21.6094 117.298 20.9456 116.904 20.4169C116.521 19.8881 115.88 19.6181 115.003 19.6181C114.44 19.6181 113.9 19.7306 113.394 19.9669C112.888 20.1919 112.438 20.5069 112.055 20.9006C111.661 21.2944 111.324 21.7444 111.054 22.2506C110.784 22.7681 110.593 23.3081 110.48 23.8706C110.334 24.6694 110.446 25.3219 110.829 25.8506C111.211 26.3794 111.841 26.6381 112.73 26.6381C113.293 26.6381 113.833 26.5256 114.328 26.3119C114.834 26.0869 115.284 25.7831 115.678 25.4006C116.071 25.0181 116.42 24.5569 116.69 24.0506C116.96 23.5444 117.151 22.9931 117.264 22.4306V22.4081Z" fill="#2D3136"/>
<defs>
<linearGradient id="paint0_linear_321_97992" x1="31.1559" y1="2.04348" x2="17.7945" y2="19.859" gradientUnits="userSpaceOnUse">
<stop stop-color="#1B72FF"/>
<stop offset="1" stop-color="#2DCEF1"/>
</linearGradient>
</defs>
</svg>
