<svg width="20" height="20" viewBox="0 0 20 20" fill="none" xmlns="http://www.w3.org/2000/svg">
<g id="Mono Icon / Megaphone-Outlined">
<path id="Vector" fill-rule="evenodd" clip-rule="evenodd" d="M16.2928 2.02062C16.462 1.92453 16.6533 1.87443 16.8476 1.875C17.0419 1.87558 17.2329 1.92681 17.4015 2.02391C17.5702 2.12102 17.7107 2.26076 17.8086 2.42957C17.9065 2.59835 17.9582 2.79004 17.9582 2.98543V14.2552C17.9579 14.4505 17.906 14.642 17.8079 14.8106C17.7099 14.9792 17.5693 15.1187 17.4007 15.2155C17.2322 15.3124 17.0413 15.3635 16.8471 15.364C16.6531 15.3645 16.4621 15.3145 16.2931 15.2186L16.2928 15.2184L11.4646 12.4798H9.9064L10.3557 15.6024L10.3562 15.6055C10.434 16.1884 10.2768 16.7777 9.91981 17.2452C9.56294 17.7126 9.03565 18.0201 8.45321 18.1027C7.87083 18.1853 7.27865 18.0366 6.80517 17.6878C6.33153 17.3389 6.01458 16.8176 5.92489 16.2365L5.92441 16.2333L5.37873 12.4414C4.55197 12.3245 3.77921 11.9449 3.18083 11.3509C2.45188 10.6274 2.0415 9.64514 2.0415 8.6199C2.0415 7.59466 2.45188 6.61237 3.18083 5.88886C3.90963 5.1655 4.8971 4.75995 5.92576 4.75995H11.4645L16.2928 2.02062ZM11.0045 6.00995H5.92576C5.22561 6.00995 4.55507 6.28606 4.0614 6.77604C3.5679 7.26587 3.2915 7.92922 3.2915 8.6199C3.2915 9.31059 3.5679 9.97394 4.0614 10.4638C4.55507 10.9537 5.22561 11.2298 5.92576 11.2298H11.0045V6.00995ZM12.2545 11.4908L16.7082 14.0169V3.22213L12.2545 5.74894V11.4908ZM6.64714 12.4798L7.1607 16.0486C7.2003 16.3004 7.33825 16.5279 7.54651 16.6814C7.7557 16.8354 8.01853 16.9018 8.27773 16.8651C8.53687 16.8283 8.7697 16.6917 8.92634 16.4866C9.08228 16.2824 9.15053 16.0264 9.11751 15.7737L8.64352 12.4798H6.64714Z" fill="#2D3136"/>
</g>
</svg>
