<svg width="32" height="32" viewBox="0 0 32 32" fill="none" xmlns="http://www.w3.org/2000/svg">
<path d="M28.1333 3.51905C27.5556 3.24286 26.9778 3.38095 26.5444 3.79524C26.5444 3.79524 25.2444 4.76191 21.7778 4.76191C19.9 4.76191 18.3111 4.07143 16.5778 3.51905C14.7 2.69048 12.6778 2 10.2222 2C5.6 2 3.72222 3.51905 3.43333 3.79524C3.14444 4.07143 3 4.34762 3 4.76191V21.3333C3 21.8857 3.28889 22.3 3.86667 22.5762C4.44444 22.8524 5.02222 22.7143 5.45556 22.3C5.45556 22.3 6.75556 21.3333 10.2222 21.3333C12.1 21.3333 13.6889 22.0238 15.4222 22.5762C17.3 23.2667 19.3222 24.0952 21.7778 24.0952C26.4 24.0952 28.2778 22.5762 28.5667 22.3C28.8556 22.0238 29 21.7476 29 21.3333V4.76191C29 4.20952 28.7111 3.79524 28.1333 3.51905Z" fill="#266BFF" fill-opacity="0.15"/>
<path fill-rule="evenodd" clip-rule="evenodd" d="M4.36842 2C5.12418 2 5.73684 2.61827 5.73684 3.38095L5.73684 29.6191C5.73684 30.3817 5.12418 31 4.36842 31C3.61266 31 3 30.3817 3 29.6191L3 3.38095C3 2.61827 3.61266 2 4.36842 2Z" fill="#266BFF" fill-opacity="0.15"/>
</svg>
