<svg width="20" height="20" viewBox="0 0 20 20" fill="none" xmlns="http://www.w3.org/2000/svg">
<path d="M20 10C20 15.5228 15.5228 20 10 20C4.47715 20 0 15.5228 0 10C0 4.47715 4.47715 0 10 0C15.5228 0 20 4.47715 20 10Z" fill="white"/>
<path fill-rule="evenodd" clip-rule="evenodd" d="M10 18.5C14.6944 18.5 18.5 14.6944 18.5 10C18.5 5.30558 14.6944 1.5 10 1.5C5.30558 1.5 1.5 5.30558 1.5 10C1.5 14.6944 5.30558 18.5 10 18.5ZM10 20C15.5228 20 20 15.5228 20 10C20 4.47715 15.5228 0 10 0C4.47715 0 0 4.47715 0 10C0 15.5228 4.47715 20 10 20Z" fill="#266BFF"/>
<path d="M14.0556 5.65066C14.2222 5.50051 14.4444 5.45046 14.6667 5.55056C14.8889 5.65066 15 5.80081 15 6.00102V12.0071C15 12.1573 14.9444 12.2574 14.8333 12.3575C14.7222 12.4576 14 13.0081 12.2222 13.0081C11.3521 13.0081 10.6234 12.7532 9.94929 12.5174C9.89174 12.4972 9.83459 12.4773 9.77778 12.4576C9.64992 12.4192 9.5241 12.3789 9.39915 12.339C8.87261 12.1706 8.36149 12.0071 7.77778 12.0071C7.30938 12.0071 6.94383 12.0503 6.66667 12.1064V14.208C6.66667 14.6454 6.29357 15 5.83333 15C5.3731 15 5 14.6454 5 14.208V6.00102C5 5.85086 5.05556 5.75076 5.16667 5.65066C5.27778 5.55056 6 5 7.77778 5C8.72222 5 9.5 5.25025 10.2222 5.55056C10.3501 5.58896 10.4759 5.62919 10.6008 5.66915C11.1274 5.83755 11.6385 6.00102 12.2222 6.00102C13.5556 6.00102 14.0556 5.65066 14.0556 5.65066Z" fill="#266BFF"/>
</svg>
