<svg width="17" height="16" viewBox="0 0 17 16" fill="none" xmlns="http://www.w3.org/2000/svg">
<path fill-rule="evenodd" clip-rule="evenodd" d="M6.65 0.700012C5.57305 0.700012 4.7 1.57306 4.7 2.65001V3.85001H6.2V2.65001C6.2 2.40148 6.40147 2.20001 6.65 2.20001H13.85C14.0985 2.20001 14.3 2.40148 14.3 2.65001V9.85001C14.3 10.0985 14.0985 10.3 13.85 10.3H12.65V11.8H13.85C14.927 11.8 15.8 10.927 15.8 9.85001V2.65001C15.8 1.57306 14.927 0.700012 13.85 0.700012H6.65ZM2.75 13.75V5.95001H10.55V13.75H2.75ZM1.25 5.65001C1.25 4.98727 1.78726 4.45001 2.45 4.45001H10.85C11.5127 4.45001 12.05 4.98727 12.05 5.65001V14.05C12.05 14.7128 11.5127 15.25 10.85 15.25H2.45C1.78726 15.25 1.25 14.7128 1.25 14.05V5.65001Z" fill="white"/>
</svg>
