<svg width="20" height="20" viewBox="0 0 20 20" fill="none" xmlns="http://www.w3.org/2000/svg">
<path fill-rule="evenodd" clip-rule="evenodd" d="M13.4146 2H15C16.1046 2 17 2.89543 17 4V17C17 18.1046 16.1046 19 15 19H5C3.89543 19 3 18.1046 3 17V4C3 2.89543 3.89543 2 5 2H6.58535C6.79127 1.4174 7.34689 1 8 1H12C12.6531 1 13.2087 1.4174 13.4146 2ZM14.5402 7.47977C14.8276 7.77814 14.8186 8.25292 14.5202 8.54024L9.32792 13.5402C9.03749 13.8199 8.5779 13.8199 8.28746 13.5402L5.97977 11.318C5.6814 11.0307 5.67244 10.5559 5.95976 10.2575C6.24708 9.95918 6.72186 9.95022 7.02023 10.2375L8.80769 11.9588L13.4798 7.45976C13.7781 7.17244 14.2529 7.1814 14.5402 7.47977Z" fill="white"/>
</svg>
