<svg width="20" height="20" viewBox="0 0 20 20" fill="none" xmlns="http://www.w3.org/2000/svg">
<path d="M2 6.5C2 5.94772 2.44772 5.5 3 5.5H12C12.5523 5.5 13 5.94772 13 6.5V13.5C13 14.0523 12.5523 14.5 12 14.5H3C2.44771 14.5 2 14.0523 2 13.5V6.5Z" fill="#919191"/>
<path d="M14.5 11.7427V8.25731C14.5 8.09583 14.578 7.9443 14.7094 7.85044L17.2094 6.06473C17.5403 5.82835 18 6.06491 18 6.47159V13.5284C18 13.9351 17.5403 14.1717 17.2094 13.9353L14.7094 12.1496C14.578 12.0557 14.5 11.9042 14.5 11.7427Z" fill="#919191"/>
</svg>
