<svg width="20" height="20" viewBox="0 0 20 20" fill="none" xmlns="http://www.w3.org/2000/svg">
<path fill-rule="evenodd" clip-rule="evenodd" d="M10 18C14.4183 18 18 14.4183 18 10C18 5.58172 14.4183 2 10 2C5.58172 2 2 5.58172 2 10C2 14.4183 5.58172 18 10 18ZM14.5303 8.03033C14.8232 7.73744 14.8232 7.26256 14.5303 6.96967C14.2374 6.67678 13.7626 6.67678 13.4697 6.96967L9 11.4393L7.03033 9.46967C6.73744 9.17678 6.26256 9.17678 5.96967 9.46967C5.67678 9.76256 5.67678 10.2374 5.96967 10.5303L8.46967 13.0303C8.76256 13.3232 9.23744 13.3232 9.53033 13.0303L14.5303 8.03033Z" fill="white"/>
</svg>
