<svg width="20" height="20" viewBox="0 0 20 20" fill="none" xmlns="http://www.w3.org/2000/svg">
<path fill-rule="evenodd" clip-rule="evenodd" d="M16.5 10C16.5 13.5899 13.5899 16.5 10 16.5C6.41015 16.5 3.5 13.5899 3.5 10C3.5 6.41015 6.41015 3.5 10 3.5C13.5899 3.5 16.5 6.41015 16.5 10ZM18 10C18 14.4183 14.4183 18 10 18C5.58172 18 2 14.4183 2 10C2 5.58172 5.58172 2 10 2C14.4183 2 18 5.58172 18 10ZM12.2679 10.5857C12.6432 10.2854 12.6432 9.7146 12.2679 9.41435L9.21852 6.97482C8.72744 6.58196 7.99999 6.93159 7.99999 7.56047V12.4395C7.99999 13.0684 8.72744 13.418 9.21852 13.0252L12.2679 10.5857Z" fill="#919191"/>
</svg>
