<svg width="20" height="20" viewBox="0 0 20 20" fill="none" xmlns="http://www.w3.org/2000/svg">
<path fill-rule="evenodd" clip-rule="evenodd" d="M6.88195 3.5H5C4.72386 3.5 4.5 3.72386 4.5 4V17C4.5 17.2761 4.72386 17.5 5 17.5H15C15.2761 17.5 15.5 17.2761 15.5 17V4C15.5 3.72386 15.2761 3.5 15 3.5H13.1181C12.8434 3.80687 12.4443 4 12 4H8C7.55575 4 7.15661 3.80687 6.88195 3.5ZM13.4146 2H15C16.1046 2 17 2.89543 17 4V17C17 18.1046 16.1046 19 15 19H5C3.89543 19 3 18.1046 3 17V4C3 2.89543 3.89543 2 5 2H6.58535C6.79127 1.4174 7.34689 1 8 1H12C12.6531 1 13.2087 1.4174 13.4146 2ZM6.75 9C6.75 8.58579 7.08579 8.25 7.5 8.25H12.5C12.9142 8.25 13.25 8.58579 13.25 9C13.25 9.41421 12.9142 9.75 12.5 9.75H7.5C7.08579 9.75 6.75 9.41421 6.75 9ZM7.5 12.25C7.08579 12.25 6.75 12.5858 6.75 13C6.75 13.4142 7.08579 13.75 7.5 13.75H12.5C12.9142 13.75 13.25 13.4142 13.25 13C13.25 12.5858 12.9142 12.25 12.5 12.25H7.5Z" fill="#919191"/>
</svg>
