<svg width="20" height="20" viewBox="0 0 20 20" fill="none" xmlns="http://www.w3.org/2000/svg">
<path fill-rule="evenodd" clip-rule="evenodd" d="M17.5 10C17.5 14.1421 14.1421 17.5 10 17.5C5.85786 17.5 2.5 14.1421 2.5 10C2.5 5.85786 5.85786 2.5 10 2.5C14.1421 2.5 17.5 5.85786 17.5 10ZM19 10C19 14.9706 14.9706 19 10 19C5.02944 19 1 14.9706 1 10C1 5.02944 5.02944 1 10 1C14.9706 1 19 5.02944 19 10ZM13.7 10.6062C14.1667 10.3367 14.1667 9.66315 13.7 9.39372L8.675 6.49253C8.20833 6.2231 7.625 6.55989 7.625 7.09875L7.625 12.9011C7.625 13.44 8.20833 13.7768 8.675 13.5073L13.7 10.6062Z" fill="white"/>
</svg>
