<svg width="12" height="12" viewBox="0 0 12 12" fill="none" xmlns="http://www.w3.org/2000/svg">
<g id="Mono Icon / Question-Outlined">
<g id="Vector">
<path fill-rule="evenodd" clip-rule="evenodd" d="M6 1.75C3.65279 1.75 1.75 3.65279 1.75 6C1.75 8.34721 3.65279 10.25 6 10.25C8.34721 10.25 10.25 8.34721 10.25 6C10.25 3.65279 8.34721 1.75 6 1.75ZM1 6C1 3.23858 3.23858 1 6 1C8.76142 1 11 3.23858 11 6C11 8.76142 8.76142 11 6 11C3.23858 11 1 8.76142 1 6Z" fill="#969CA3"/>
<path d="M6.5 8.525C6.5 8.80114 6.27614 9.025 6 9.025C5.72386 9.025 5.5 8.80114 5.5 8.525C5.5 8.24886 5.72386 8.025 6 8.025C6.27614 8.025 6.5 8.24886 6.5 8.525Z" fill="#969CA3"/>
<path fill-rule="evenodd" clip-rule="evenodd" d="M6.5665 3.891C6.39412 3.79846 6.1973 3.74934 5.99598 3.75001C5.79465 3.75067 5.59825 3.80108 5.42663 3.89472C5.25512 3.98829 5.11565 4.12097 5.01991 4.27723C4.92431 4.43328 4.87503 4.60825 4.875 4.78488C4.87497 4.99198 4.70705 5.15985 4.49995 5.15982C4.29284 5.15979 4.12497 4.99188 4.125 4.78477C4.12505 4.46754 4.2138 4.15733 4.38039 3.88542C4.54686 3.61372 4.78454 3.39067 5.06742 3.23633C5.35019 3.08206 5.66946 3.00108 5.99351 3.00001C6.31755 2.99894 6.63738 3.07782 6.92123 3.23019C7.20518 3.38262 7.44446 3.60404 7.6129 3.87456C7.78147 4.1453 7.87254 4.45486 7.87495 4.77208C7.87736 5.08931 7.79101 5.40017 7.62648 5.67329C7.46211 5.94614 7.22616 6.17084 6.94449 6.32714L6.94432 6.32723C6.85441 6.37721 6.76334 6.42091 6.68756 6.45728C6.67318 6.46418 6.65935 6.47082 6.64618 6.47718C6.55657 6.52051 6.49549 6.55224 6.44892 6.58377C6.40483 6.61361 6.39075 6.6323 6.386 6.64012L6.38591 6.64026C6.38342 6.64434 6.375 6.65815 6.375 6.7V7.175C6.375 7.38211 6.20711 7.55 6 7.55C5.79289 7.55 5.625 7.38211 5.625 7.175V6.7C5.625 6.53482 5.66417 6.3835 5.74538 6.2501C5.8242 6.12064 5.92947 6.02972 6.02848 5.96269C6.12501 5.89735 6.23078 5.84496 6.31975 5.80195C6.33632 5.79394 6.35246 5.78618 6.36825 5.77859C6.4439 5.74224 6.51156 5.70972 6.58015 5.67158L6.58048 5.67139C6.75119 5.57669 6.88957 5.44312 6.98404 5.28628C7.07839 5.12966 7.12632 4.9544 7.12497 4.77779C7.12363 4.60116 7.07304 4.42647 6.97623 4.27098C6.87929 4.11529 6.73876 3.98347 6.5665 3.891Z" fill="#969CA3"/>
</g>
</g>
</svg>
