<svg width="18" height="18" viewBox="0 0 18 18" fill="none" xmlns="http://www.w3.org/2000/svg">
<circle cx="9" cy="9" r="9" fill="#D9D9D9"/>
<path d="M8.17956 10.3273C8.18232 9.85773 8.22514 9.4779 8.30801 9.18784C8.39088 8.89779 8.50829 8.66575 8.66022 8.49171C8.81215 8.31492 9.01796 8.14503 9.27762 7.98204C9.47376 7.85773 9.63536 7.73757 9.76243 7.62155C9.8895 7.50276 9.99033 7.37155 10.0649 7.2279C10.1395 7.08149 10.1768 6.92127 10.1768 6.74724C10.1768 6.55663 10.1312 6.3895 10.0401 6.24586C9.95166 6.09945 9.82873 5.98619 9.67127 5.90608C9.51381 5.82597 9.33978 5.78591 9.14917 5.78591C8.96409 5.78591 8.79006 5.82735 8.62707 5.91022C8.46685 5.99033 8.33564 6.1105 8.23343 6.27072C8.13398 6.42818 8.08011 6.61602 8.07182 6.83425H6.40608C6.41713 6.30387 6.54558 5.85635 6.79144 5.49171C7.03729 5.12431 7.36602 4.85083 7.77762 4.67127C8.18923 4.48895 8.65055 4.39779 9.1616 4.39779C9.70856 4.39779 10.1934 4.48895 10.616 4.67127C11.0387 4.85083 11.3674 5.11464 11.6022 5.46271C11.837 5.81077 11.9544 6.22099 11.9544 6.69337C11.9544 7.00552 11.9033 7.28729 11.8011 7.53867C11.6989 7.78729 11.5539 8.00829 11.366 8.20166C11.1809 8.39503 10.953 8.5732 10.6823 8.73619C10.453 8.87155 10.2707 9.00967 10.1354 9.15055C10 9.28867 9.89917 9.45166 9.83287 9.6395C9.76657 9.82735 9.73204 10.0566 9.72928 10.3273V10.4599H8.17956V10.3273ZM8.98757 13.1036C8.81077 13.1036 8.64503 13.0594 8.49033 12.971C8.3384 12.8798 8.21823 12.7597 8.12983 12.6105C8.0442 12.4613 8.00276 12.2983 8.00552 12.1215C8.00276 11.9448 8.0442 11.7818 8.12983 11.6326C8.21823 11.4807 8.3384 11.3619 8.49033 11.2762C8.64503 11.1878 8.81077 11.1436 8.98757 11.1436C9.1616 11.1436 9.32459 11.1878 9.47652 11.2762C9.62845 11.3619 9.74862 11.4807 9.83702 11.6326C9.92541 11.7818 9.97099 11.9448 9.97376 12.1215C9.97099 12.2983 9.92541 12.4613 9.83702 12.6105C9.74862 12.7597 9.62845 12.8798 9.47652 12.971C9.32459 13.0594 9.1616 13.1036 8.98757 13.1036Z" fill="black"/>
</svg>
