<svg width="20" height="20" viewBox="0 0 20 20" fill="none" xmlns="http://www.w3.org/2000/svg">
<circle cx="10" cy="10" r="10" fill="#266BFF"/>
<path d="M9.99983 13.1462C9.40161 13.1462 8.91666 13.6311 8.91666 14.2293C8.91666 14.8275 9.40161 15.3125 9.99983 15.3125C10.598 15.3125 11.083 14.8275 11.083 14.2293C11.083 13.6311 10.598 13.1462 9.99983 13.1462ZM9.9999 4.6875C8.18231 4.6875 6.76641 6.10521 6.78534 8.07708C6.78994 8.55601 7.18192 8.94053 7.66084 8.93593C8.13977 8.93133 8.52429 8.53936 8.51969 8.06043C8.51005 7.05618 9.14349 6.42193 9.9999 6.42193C10.8192 6.42193 11.4801 7.10163 11.4801 8.06876C11.4801 8.41876 11.3566 8.61504 10.8562 9.01204L10.3741 9.385C9.49685 10.0863 9.13265 10.6295 9.13261 11.6197C9.13259 12.0987 9.52084 12.487 9.99979 12.487C10.4255 12.487 10.7796 12.1802 10.8531 11.7757L10.8731 11.5049C10.9023 11.2486 11.0457 11.0649 11.4719 10.7274L11.9525 10.3557C12.8428 9.64317 13.2145 9.08472 13.2145 8.06876C13.2145 6.15447 11.7882 4.6875 9.9999 4.6875Z" fill="white"/>
</svg>
