<svg width="16" height="15" viewBox="0 0 16 15" fill="none" xmlns="http://www.w3.org/2000/svg">
<path d="M2.16667 6.91667C2.16667 6.68655 2.35321 6.5 2.58333 6.5H13.4167C13.6468 6.5 13.8333 6.68655 13.8333 6.91667V12.9167C13.8333 13.1468 13.6468 13.3333 13.4167 13.3333H2.58333C2.35321 13.3333 2.16667 13.1468 2.16667 12.9167V6.91667Z" fill="#D3D7DA"/>
<path d="M5.08333 0H3.41667V4.75C3.41667 4.98012 3.60321 5.16667 3.83333 5.16667H5.5C5.26988 5.16667 5.08333 4.98012 5.08333 4.75V0Z" fill="#5F656D"/>
<path d="M10.0833 1C10.0833 0.907959 10.158 0.833333 10.25 0.833333H11.5833C11.6754 0.833333 11.75 0.907959 11.75 1V4.16667C11.75 4.25871 11.6754 4.33333 11.5833 4.33333H10.25C10.158 4.33333 10.0833 4.25871 10.0833 4.16667V1Z" fill="#5F656D"/>
<path fill-rule="evenodd" clip-rule="evenodd" d="M12.5833 0H5.08333V4.75C5.08333 4.98012 5.26988 5.16667 5.5 5.16667H12.1667C12.3968 5.16667 12.5833 4.98012 12.5833 4.75V0ZM10.25 0.833333C10.158 0.833333 10.0833 0.907959 10.0833 1V4.16667C10.0833 4.25871 10.158 4.33333 10.25 4.33333H11.5833C11.6754 4.33333 11.75 4.25871 11.75 4.16667V1C11.75 0.907959 11.6754 0.833333 11.5833 0.833333H10.25Z" fill="#D3D7DA"/>
<path fill-rule="evenodd" clip-rule="evenodd" d="M13.2857 0.24408C13.1295 0.0877889 12.9175 0 12.6965 0H12.5833V4.75C12.5833 4.98012 12.3968 5.16667 12.1667 5.16667H3.83333C3.60321 5.16667 3.41667 4.98012 3.41667 4.75V0H0.916667C0.686544 0 0.5 0.186544 0.5 0.416667V14.5833C0.5 14.8135 0.686544 15 0.916667 15H15.0833C15.3135 15 15.5 14.8135 15.5 14.5833V2.80351C15.5 2.5825 15.4122 2.37052 15.2559 2.21425L13.2857 0.24408ZM2.16667 6.91667C2.16667 6.68655 2.35321 6.5 2.58333 6.5H13.4167C13.6468 6.5 13.8333 6.68655 13.8333 6.91667V12.9167C13.8333 13.1468 13.6468 13.3333 13.4167 13.3333H2.58333C2.35321 13.3333 2.16667 13.1468 2.16667 12.9167V6.91667Z" fill="#5F656D"/>
</svg>
