<svg width="18" height="17" viewBox="0 0 18 17" fill="none" xmlns="http://www.w3.org/2000/svg">
<path d="M9.62484 3.70835C9.62484 3.36318 9.34502 3.08335 8.99984 3.08335C8.65466 3.08335 8.37484 3.36318 8.37484 3.70835V8.50002C8.37484 8.73153 8.50281 8.94407 8.70741 9.05239L12.2491 10.9274C12.5541 11.0889 12.9324 10.9725 13.0939 10.6675C13.2554 10.3624 13.139 9.98416 12.8339 9.82265L9.62484 8.12372V3.70835Z" fill="#266BFF"/>
<path fill-rule="evenodd" clip-rule="evenodd" d="M8.99984 0.166687C4.39746 0.166687 0.666504 3.89765 0.666504 8.50002C0.666504 13.1024 4.39746 16.8334 8.99984 16.8334C13.6022 16.8334 17.3332 13.1024 17.3332 8.50002C17.3332 3.89765 13.6022 0.166687 8.99984 0.166687ZM1.9165 8.50002C1.9165 4.588 5.08782 1.41669 8.99984 1.41669C12.9119 1.41669 16.0832 4.588 16.0832 8.50002C16.0832 12.412 12.9119 15.5834 8.99984 15.5834C5.08782 15.5834 1.9165 12.412 1.9165 8.50002Z" fill="#266BFF"/>
</svg>
