<svg width="24" height="24" viewBox="0 0 24 24" fill="none" xmlns="http://www.w3.org/2000/svg">
<g filter="url(#filter0_b_1920_10780)">
<rect width="24" height="24" rx="12" fill="#141414" fill-opacity="0.2"/>
<path fill-rule="evenodd" clip-rule="evenodd" d="M10 7C9.44772 7 9 7.44772 9 8V16C9 16.5523 9.44772 17 10 17C10.5523 17 11 16.5523 11 16V8C11 7.44772 10.5523 7 10 7ZM14 7C13.4477 7 13 7.44772 13 8V16C13 16.5523 13.4477 17 14 17C14.5523 17 15 16.5523 15 16V8C15 7.44772 14.5523 7 14 7Z" fill="white"/>
<rect x="1" y="1" width="22" height="22" rx="11" stroke="white" stroke-width="2"/>
</g>
<defs>
<filter id="filter0_b_1920_10780" x="-20" y="-20" width="64" height="64" filterUnits="userSpaceOnUse" color-interpolation-filters="sRGB">
<feFlood flood-opacity="0" result="BackgroundImageFix"/>
<feGaussianBlur in="BackgroundImageFix" stdDeviation="10"/>
<feComposite in2="SourceAlpha" operator="in" result="effect1_backgroundBlur_1920_10780"/>
<feBlend mode="normal" in="SourceGraphic" in2="effect1_backgroundBlur_1920_10780" result="shape"/>
</filter>
</defs>
</svg>
