<svg width="32" height="33" viewBox="0 0 32 33" fill="none" xmlns="http://www.w3.org/2000/svg">
<g id="Spinner">
<path id="Indicator" d="M31.0281 16.5487C31.5809 16.5487 32.0322 16.9981 31.9982 17.5498C31.4815 25.9282 24.5232 32.5632 16.0145 32.5632C7.16957 32.5632 0 25.3934 0 16.5487C0 8.04028 6.63487 1.08176 15.0134 0.565038C15.5651 0.531011 16.0145 0.982381 16.0145 1.53517C16.0145 2.08795 15.5649 2.53236 15.0134 2.57127C7.74128 3.08453 2.00181 9.14638 2.00181 16.5487C2.00181 24.2877 8.27506 30.5614 16.0145 30.5614C23.4173 30.5614 29.4787 24.8215 29.992 17.5498C30.0309 16.9984 30.4753 16.5487 31.0281 16.5487Z" fill="#2D3136"/>
</g>
</svg>
