<svg width="25" height="24" viewBox="0 0 25 24" fill="none" xmlns="http://www.w3.org/2000/svg">
<path d="M12.0876 6.48625C12.2862 6.19646 12.7138 6.19646 12.9124 6.48625L14.3552 8.59146C14.5503 8.87606 14.8375 9.08472 15.1684 9.18227L17.6164 9.90391C17.9534 10.0032 18.0856 10.41 17.8713 10.6884L16.315 12.7111C16.1046 12.9846 15.9949 13.3222 16.0044 13.6671L16.0746 16.2183C16.0842 16.5695 15.7382 16.8208 15.4072 16.7031L13.0026 15.848C12.6775 15.7324 12.3225 15.7324 11.9974 15.848L9.59276 16.7031C9.26176 16.8208 8.91577 16.5695 8.92543 16.2183L8.9956 13.6671C9.00508 13.3222 8.89538 12.9846 8.68499 12.7111L7.12866 10.6884C6.91443 10.41 7.04658 10.0032 7.38356 9.90391L9.83159 9.18227C10.1625 9.08472 10.4497 8.87606 10.6448 8.59146L12.0876 6.48625Z" stroke="#266BFF"/>
</svg>
