<svg width="25" height="24" viewBox="0 0 25 24" fill="none" xmlns="http://www.w3.org/2000/svg">
<path d="M11.6751 6.20359C12.0723 5.62401 12.9277 5.62401 13.3249 6.20359L14.7677 8.3088C14.8977 8.49853 15.0892 8.63764 15.3098 8.70268L17.7578 9.42431C18.4318 9.62298 18.6961 10.4364 18.2676 10.9933L16.7113 13.016C16.571 13.1983 16.4979 13.4234 16.5042 13.6533L16.5744 16.2045C16.5937 16.9069 15.9017 17.4097 15.2397 17.1742L12.835 16.3191C12.6183 16.2421 12.3817 16.2421 12.165 16.3191L9.76029 17.1742C9.09828 17.4097 8.4063 16.9069 8.42562 16.2045L8.49579 13.6533C8.50211 13.4234 8.42898 13.1983 8.28872 13.016L6.73238 10.9933C6.30392 10.4364 6.56823 9.62298 7.24218 9.42431L9.69021 8.70268C9.91084 8.63764 10.1023 8.49853 10.2323 8.3088L11.6751 6.20359Z" fill="white"/>
</svg>
