<svg width="20" height="20" viewBox="0 0 20 20" fill="none" xmlns="http://www.w3.org/2000/svg">
<path fill-rule="evenodd" clip-rule="evenodd" d="M4.25 10C4.25 6.82436 6.82436 4.25 10 4.25C13.1756 4.25 15.75 6.82436 15.75 10C15.75 13.1756 13.1756 15.75 10 15.75C6.82436 15.75 4.25 13.1756 4.25 10ZM10 2.75C5.99594 2.75 2.75 5.99594 2.75 10C2.75 14.0041 5.99594 17.25 10 17.25C14.0041 17.25 17.25 14.0041 17.25 10C17.25 5.99594 14.0041 2.75 10 2.75ZM9.5 6V9.5H6.5V11H10.25H11V10.25V6H9.5Z" fill="#7A8088"/>
</svg>
