<svg width="16" height="12" viewBox="0 0 16 12" fill="none" xmlns="http://www.w3.org/2000/svg">
<path d="M12.1622 9.16846L15.2449 7.43588L14.7549 6.56412L13.3289 7.36558C13.4406 6.92873 13.4999 6.47113 13.4999 6C13.4999 2.96243 11.0375 0.5 7.99992 0.5C6.99896 0.5 6.05904 0.767846 5.24955 1.23611L5.75028 2.10171C6.41166 1.71913 7.17944 1.5 7.99992 1.5C10.4852 1.5 12.4999 3.51472 12.4999 6C12.4999 6.50883 12.4156 6.99739 12.2604 7.45287L11.1725 5.73274L10.3273 6.26726L12.1622 9.16846Z" fill="#266BFF"/>
<path d="M3.83774 2.83155L0.755005 4.56412L1.24495 5.43588L2.67096 4.63442C2.55932 5.07127 2.49998 5.52887 2.49998 6C2.49998 9.03757 4.96241 11.5 7.99998 11.5C9.00094 11.5 9.94086 11.2322 10.7503 10.7639L10.2496 9.89829C9.58823 10.2809 8.82046 10.5 7.99998 10.5C5.5147 10.5 3.49998 8.48528 3.49998 6C3.49998 5.49117 3.58425 5.00261 3.73953 4.54713L4.8274 6.26726L5.67256 5.73274L3.83774 2.83155Z" fill="#266BFF"/>
</svg>
