<svg width="20" height="20" viewBox="0 0 20 20" fill="none" xmlns="http://www.w3.org/2000/svg">
<path fill-rule="evenodd" clip-rule="evenodd" d="M4.25 3.5C2.73122 3.5 1.5 4.73122 1.5 6.25V13.75C1.5 15.2688 2.73122 16.5 4.25 16.5H15.75C17.2688 16.5 18.5 15.2688 18.5 13.75V6.25C18.5 4.73122 17.2688 3.5 15.75 3.5H4.25ZM3 6.25C3 5.55964 3.55964 5 4.25 5H15.75C16.4404 5 17 5.55964 17 6.25V13.75C17 14.4404 16.4404 15 15.75 15H4.25C3.55964 15 3 14.4404 3 13.75V6.25ZM8.71964 12.6628C8.55472 12.7587 8.3923 12.7755 8.23238 12.7132C8.07746 12.646 8 12.5309 8 12.3679V7.62731C8 7.45946 8.07996 7.34677 8.23988 7.28922C8.4048 7.22687 8.56472 7.23886 8.71964 7.32518L12.7751 9.62712C12.925 9.71345 13 9.83813 13 10.0012C13 10.1594 12.925 10.2817 12.7751 10.3681L8.71964 12.6628Z" fill="#7A8088"/>
</svg>
