<svg width="16" height="16" viewBox="0 0 16 16" fill="none" xmlns="http://www.w3.org/2000/svg">
<path d="M4.81908 2.85879C4.62093 2.66646 4.6162 2.34992 4.80853 2.15176C5.00085 1.95361 5.3174 1.94888 5.51556 2.14121L11.1804 7.63946C11.183 7.64195 11.1856 7.64447 11.1881 7.64702C11.2852 7.74436 11.334 7.87211 11.334 8C11.334 8.0743 11.3175 8.14865 11.2845 8.21711C11.2609 8.26625 11.2287 8.31227 11.1881 8.35298C11.1856 8.35553 11.183 8.35805 11.1804 8.36054L5.51556 13.8588C5.3174 14.0511 5.00085 14.0464 4.80853 13.8482C4.6162 13.6501 4.62093 13.3335 4.81908 13.1412L10.1161 8L4.81908 2.85879Z" fill="white"/>
</svg>
